<?xml version="1.0" encoding="utf-8"?>
<!-- Generator: Adobe Illustrator 25.2.3, SVG Export Plug-In . SVG Version: 6.00 Build 0)  -->
<svg version="1.1" id="Слой_1" xmlns="http://www.w3.org/2000/svg" xmlns:xlink="http://www.w3.org/1999/xlink" x="0px" y="0px"
	 viewBox="0 0 342 271.2" style="enable-background:new 0 0 342 271.2;" xml:space="preserve">
<g id="images" transform="translate(-538 -150.837)">
	<path id="Контур_280" fill="#3C4249" d="M690,277v-10.8c0,0-1.6-7.9-8.2-8.1s-29,0-29,0s1.4,2.6,1.4,4s0,14.9,0,14.9H690z"/>
	<path id="Контур_306" fill="#3C4249" d="M793.6,374h22.7c0,0,0.2-6.2-1.2-8s-3.8-5.4-5.3-5.5c-1.8-0.4-3.5-0.9-5.2-1.6h-2.4
		v-41.3c0,0-3.7,7.1-8.9,9.4c-3.2,1.4-6.6,2.1-10.1,2.1c0,0,0.5,9.5-0.8,12.8c-1.8,4.2-3.9,8.3-6.2,12.3c-0.8,1.2-0.6,1.8,1.3,1.9
		c3.1,0.1,6.2,1,9,2.6c2.9,1.8,6.7,5,7.1,8.4s0.8,4,0.7,4.5C794.1,372.4,793.9,373.2,793.6,374z"/>
	<path id="Контур_304" fill="#3C4249" d="M802.2,236.1c0,0-0.7-10.6,2.3-14.5s11.9-14.1,12.5-19.6s1.9-12,0-14.7s-5.5-2.1-6.4-2
		s3.2,8.9-3.6,18.7s-18.2,15-19.3,15.5s-3.2,1.7,0,2.6s8.6,4.7,10.4,7.7S802.2,236.1,802.2,236.1z"/>
	<path id="Прямоугольник_1_копия_12" fill="#3C4249" d="M602,422v-20h-38v10h-2v-10h-24v-2h24v-38h-24v-2h24v-18h2
		v18h3v2h-3v38h38v-18h2v18h23v2h-23v20H602z M641,406v-4h-4v-2h4v-4h2v4h4v2h-4v4H641z M852,393v-19h-87v19h-2v-19h-5v-2h5v-39h2
		v39h87v-39h-4v-2h4v-38h-4v-2h4v-23h2v23h6v2h-6v38h26v2h-26v39h26v2h-26v19H852z M833,337v-4h-4v-2h4v-4h2v4h4v2h-4v4H833z
		 M562,336v-4h-4v-2h4v-4h2v4h4v2h-4v4H562z M852,258v-4h-4v-2h4v-4h2v4h4v2h-4v4H852z"/>
	<path id="Контур_303" fill="none" stroke="#3C4249" stroke-width="2" stroke-linecap="round" d="M739.4,374H629.9"/>
	<path id="Контур_301" fill="#DE5846" d="M817.3,189.4c-0.8,2.6-4.2-1.1-4.2-3.5S818.2,186.8,817.3,189.4z"/>
	<g id="Группа_3">
		<path id="Фигура_1142" fill="none" stroke="#7E8A9C" stroke-width="2" stroke-linecap="round" d="M700,276c14.3-19.5,41-36.6,41-69s12.5-37.7,19-41c1.4-0.7,5.5-10,6-12s3.6-3.7,6,0
			c2.2,3.3,5,8,5,8s24.3,0,33,23c0.4,1,4.6-0.1,6,1s6.2,15.3-7,30c-3.2,3.5-7,6.3-7,22v121c0,0,14-0.3,14,13v1h-16"/>
		<path id="Эллипс_3695" fill="none" stroke="#7E8A9C" stroke-width="2" stroke-linecap="round" d="M764.2,297.4c11.9,8.4,18.9,22,18.8,36.6c0,9-3.3,14.8-7.9,21.8"/>
		<path id="Фигура_1143" fill="none" stroke="#7E8A9C" stroke-width="2" stroke-linecap="round" d="M775,356c6.7,0,17.2,2.3,19,14c0.1,1,0.1,2,0,3l-28,0.1"/>
		<path id="Фигура_1144" fill="none" stroke="#7E8A9C" stroke-width="2" stroke-linecap="round" d="M810.1,185.2c0,0,8.3,24.5-31.1,37.8"/>
		<path id="Фигура_1145" fill="none" stroke="#7E8A9C" stroke-width="2" stroke-linecap="round" d="M758.9,166.7c0,0,5.6-1.4,8.1-3.7"/>
		<path id="Фигура_1146" fill="none" stroke="#7E8A9C" stroke-width="2" stroke-linecap="round" d="M802,236c0,0-5-12-17-15"/>
		<path id="Фигура_1148" fill="none" stroke="#7E8A9C" stroke-width="2" stroke-linecap="round" d="M746.6,276.8c-2.7-3.9-4.7-11.8-2.6-17.8"/>
		<path id="Контур_302" fill="none" stroke="#7E8A9C" stroke-width="2" stroke-linecap="round" d="M798.9,182.4c0,0-2.6-2.2-8.1,0"/>
		<path id="Контур_305" fill="none" stroke="#7E8A9C" stroke-width="2" stroke-linecap="round" d="M783,329.4c0,0,15.5-0.5,19-13.1"/>
	</g>
	<path id="Прямоугольник_скругл._углы_970" fill="none" stroke="#3C4249" stroke-width="2" d="M654,277h100c5.5,0,10,4.5,10,10v77"/>
	<path id="Прямоугольник_скругл._углы_970_копия" fill="none" stroke="#3C4249" stroke-width="2" d="M597,278v-16c0-5.5,4.5-10,10-10h37
		c5.5,0,10,4.5,10,10v16"/>
	<path id="Прямоугольник_скругл._углы_970_копия_2" fill="none" stroke="#3C4249" stroke-width="2" d="M653,258h27c5.5,0,10,4.5,10,10v10"
		/>
	<path id="Прямоугольник_скругл._углы_970_копия_3" fill="none" stroke="#3C4249" stroke-width="2" stroke-linecap="round" d="M654,277h100c5.5,0,10,4.5,10,10v26
		 M597,364v-86"/>
	<g id="Прямоугольник_1_копия_6">
		<path fill="none" d="M712,322v-4h4v4H712z M704,322v-4h4v4H704z M656,322v-4h4v4H656z M648,322v-4h4v4H648z M708,318v-4h4v4H708z
			 M652,318v-4h4v4H652z M712,314v-4h4v4H712z M704,314v-4h4v4H704z M656,314v-4h4v4H656z M648,314v-4h4v4H648z"/>
		<path fill="#7E8A9C" d="M716,322h-4v-4h4V322z M708,322h-4v-4h4V322z M660,322h-4v-4h4V322z M652,322h-4v-4h4V322z M712,318h-4v-4h4
			V318z M656,318h-4v-4h4V318z M716,314h-4v-4h4V314z M708,314h-4v-4h4V314z M660,314h-4v-4h4V314z M652,314h-4v-4h4V314z"/>
	</g>
	<line id="Фигура_1" fill="none" stroke="#7E8A9C" stroke-width="2" x1="671" y1="341" x2="695" y2="341"/>
	<path id="Прямоугольник_скругл._углы_971" fill="none" stroke="#7E8A9C" stroke-width="2" d="M613.6,357h32.9c4.7,0,8.5,3.8,8.5,8.5
		s-3.8,8.5-8.5,8.5h-53c-4.7,0-8.5-3.8-8.5-8.5s3.8-8.5,8.5-8.5h2.6"/>
</g>
</svg>
