<svg xmlns="http://www.w3.org/2000/svg" width="948" height="381" viewBox="0 0 948 381">
  <g id="_500" transform="translate(-430 -224)">
    <g id="_5">
      <path id="Фигура_860" d="M531,605c-28.2,0-65-31.7-65-65V506h12v17c0,25.2,24.3,70,70,70h44c21.1,0,39-12,39-12s-22.4,24-49,24Zm64-139c0-12.7-10.3-17-17-17H528c-36.2,0-57-16.9-57-47V379h12v14c0,7.2,11.2,44,44,44h60c12,0,20,5.4,20,16v71c0,7.4-12,13-12,13ZM539,338V326h99v12Zm-68-22V285h12v31Z" fill="#3c4249"/>
      <path id="_5_копия" d="M484,368v21a45.163,45.163,0,0,0,3.9,18.5,47.789,47.789,0,0,0,44.3,29.2h58.5a17.281,17.281,0,0,1,12.4,4.8,16.079,16.079,0,0,1,5,12.2v67.6a17.033,17.033,0,0,1-16.8,17.4H550.5A17.117,17.117,0,0,1,533,521.9V493.4H479.3v27.9A67.709,67.709,0,0,0,485,549a72.174,72.174,0,0,0,37.8,37.7,69.38,69.38,0,0,0,27.7,5.7h40.2a66.12,66.12,0,0,0,27.7-5.7,72.689,72.689,0,0,0,37.8-37.6,68.905,68.905,0,0,0,5.7-27.6V454a67.247,67.247,0,0,0-5.7-27.6,72.338,72.338,0,0,0-37.8-37.6,69.38,69.38,0,0,0-27.7-5.7H537.9V325.6H651V272H484v52" fill="none" stroke="#7e8a9c" stroke-width="2"/>
      <g id="Эллипс_862" transform="translate(478 324)">
        <circle id="Эллипс_55" data-name="Эллипс 55" cx="5" cy="5" r="5" fill="none"/>
        <circle id="Эллипс_56" data-name="Эллипс 56" cx="4" cy="4" r="4" transform="translate(1 1)" fill="none" stroke="#7e8a9c" stroke-width="2"/>
      </g>
      <g id="Эллипс_862_копия" transform="translate(478 360)">
        <circle id="Эллипс_57" data-name="Эллипс 57" cx="5" cy="5" r="5" fill="none"/>
        <circle id="Эллипс_58" data-name="Эллипс 58" cx="4" cy="4" r="4" transform="translate(1 1)" fill="none" stroke="#7e8a9c" stroke-width="2"/>
      </g>
    </g>
    <g id="Группа_89">
      <path id="Эллипс_634" d="M704,434c0,103.8,91.1,159,161,159,30.3,0,83.7-13.3,114.4-47.2A162.012,162.012,0,1,1,730.7,338.1a164.931,164.931,0,0,1,19.5-19.7C743,326.2,704,364.4,704,434Z" fill="#3c4249"/>
      <g id="Эллипс_634_копия_3" transform="translate(703 270)">
        <circle id="Эллипс_59" data-name="Эллипс 59" cx="162" cy="162" r="162" fill="none"/>
        <circle id="Эллипс_60" data-name="Эллипс 60" cx="161" cy="161" r="161" transform="translate(1 1)" fill="none" stroke="#7e8a9c" stroke-width="2"/>
      </g>
      <g id="Группа_88">
        <path id="Фигура_639" d="M965.8,332.2l-51.2,51.2m-98.3,98.2-50.7,50.7" fill="none" stroke="#de5846" stroke-width="2"/>
        <path id="Фигура_639_копия" d="M964.3,532.3,914,481.9m-98.2-98.2-51.5-51.5" fill="none" stroke="#de5846" stroke-width="2"/>
        <g id="Фигура_643">
          <path id="Контур_11" data-name="Контур 11" d="M902.6,492.6l-36.9-36.9-.7-.7-.7.7-36.9,36.9-22.9-22.9,36.9-36.9.7-.7-.7-.7-36.9-36.9,22.9-22.9,36.9,36.9.7.7.7-.7,36.9-36.9,22.9,22.9-36.9,36.9-.7.7.7.7,36.9,36.9Z" fill="#5b1b1b"/>
          <path id="Контур_12" data-name="Контур 12" d="M827.3,373l-21.5,21.5L842,430.7l1.4,1.4-1.4,1.4-36.2,36.2,21.5,21.5L863.5,455l1.4-1.4,1.4,1.4,36.2,36.2L924,469.7l-36.2-36.2-1.4-1.4,1.4-1.4L924,394.5,902.6,373l-36.2,36.2-1.4,1.4-1.4-1.4L827.3,373m0-2.8,37.6,37.6,37.6-37.6,24.3,24.3-37.6,37.6,37.6,37.6L902.6,494,865,456.4,827.3,494,803,469.7l37.6-37.6L803,394.4Z" fill="#de5846"/>
        </g>
      </g>
      <path id="Эллипс_634_копия_2" d="M976.3,343.8a142.11,142.11,0,0,1,.4,176m-23,23.1a141.933,141.933,0,0,1-177.2.1m-22.9-22.9a141.935,141.935,0,0,1,.9-177.2m22.6-22.4a142,142,0,0,1,176.4.5" fill="none" stroke="#212225" stroke-width="2"/>
      <path id="Эллипс_634_копия" d="M933.6,387.1a82.038,82.038,0,0,1-.4,90.4m-22.9,22.8a82.015,82.015,0,0,1-90.5.1m-23.2-23.1a81.993,81.993,0,0,1,.1-90.6m23.2-23.2a82.181,82.181,0,0,1,90.6.2" fill="none" stroke="#212225" stroke-width="2"/>
      <line id="Фигура_642" x1="44" y1="43" transform="translate(909 500)" fill="none" stroke="#212225" stroke-width="2"/>
      <line id="Фигура_642_копия" x1="44" y1="43" transform="translate(932 476)" fill="none" stroke="#212225" stroke-width="2"/>
      <line id="Фигура_642_копия_2" x1="44" y1="44" transform="translate(754 344)" fill="none" stroke="#212225" stroke-width="2"/>
      <line id="Фигура_642_копия_2-2" x1="44" y1="43" transform="translate(777 321)" fill="none" stroke="#212225" stroke-width="2"/>
      <line id="Фигура_642_копия_3" y1="44" x2="44" transform="translate(753 474.6)" fill="none" stroke="#212225" stroke-width="2"/>
      <line id="Фигура_642_копия_3-2" y1="44" x2="43" transform="translate(778 497.6)" fill="none" stroke="#212225" stroke-width="2"/>
      <line id="Фигура_642_копия_3-3" y1="44" x2="44" transform="translate(909 319.6)" fill="none" stroke="#212225" stroke-width="2"/>
      <line id="Фигура_642_копия_3-4" y1="44" x2="43" transform="translate(933 342.6)" fill="none" stroke="#212225" stroke-width="2"/>
    </g>
    <g id="Группа_89_копия">
      <path id="Эллипс_634-2" d="M1054,434c0,103.8,91.1,159,161,159,30.3,0,83.7-13.3,114.4-47.2a162.012,162.012,0,1,1-248.7-207.7,164.931,164.931,0,0,1,19.5-19.7C1093,326.2,1054,364.4,1054,434Z" fill="#3c4249"/>
      <g id="Эллипс_634_копия_3-2" transform="translate(1053 270)">
        <circle id="Эллипс_61" data-name="Эллипс 61" cx="162" cy="162" r="162" fill="none"/>
        <circle id="Эллипс_62" data-name="Эллипс 62" cx="161" cy="161" r="161" transform="translate(1 1)" fill="none" stroke="#7e8a9c" stroke-width="2"/>
      </g>
      <path id="Эллипс_634_копия_2-2" d="M1326.3,343.8a142.11,142.11,0,0,1,.4,176m-23,23.1a141.933,141.933,0,0,1-177.2.1m-22.9-22.9a141.935,141.935,0,0,1,.9-177.2m22.6-22.4a142,142,0,0,1,176.4.5" fill="none" stroke="#7e8a9c" stroke-width="2"/>
      <path id="Эллипс_634_копия-2" d="M1283.6,387.1a82.038,82.038,0,0,1-.4,90.4m-22.9,22.8a82.015,82.015,0,0,1-90.5.1m-23.2-23.1a81.993,81.993,0,0,1,.1-90.6m23.2-23.2a82.181,82.181,0,0,1,90.6.2" fill="none" stroke="#7e8a9c" stroke-width="2"/>
      <line id="Фигура_642-2" x1="44" y1="43" transform="translate(1259 500)" fill="none" stroke="#7e8a9c" stroke-width="2"/>
      <line id="Фигура_642_копия-2" x1="44" y1="43" transform="translate(1282 476)" fill="none" stroke="#7e8a9c" stroke-width="2"/>
      <line id="Фигура_642_копия_2-3" x1="44" y1="44" transform="translate(1104 344)" fill="none" stroke="#7e8a9c" stroke-width="2"/>
      <line id="Фигура_642_копия_2-4" x1="44" y1="43" transform="translate(1127 321)" fill="none" stroke="#7e8a9c" stroke-width="2"/>
      <line id="Фигура_642_копия_3-5" y1="44" x2="44" transform="translate(1103 474.6)" fill="none" stroke="#7e8a9c" stroke-width="2"/>
      <line id="Фигура_642_копия_3-6" y1="44" x2="43" transform="translate(1128 497.6)" fill="none" stroke="#7e8a9c" stroke-width="2"/>
      <line id="Фигура_642_копия_3-7" y1="44" x2="44" transform="translate(1259 319.6)" fill="none" stroke="#7e8a9c" stroke-width="2"/>
      <line id="Фигура_642_копия_3-8" y1="44" x2="43" transform="translate(1283 342.6)" fill="none" stroke="#7e8a9c" stroke-width="2"/>
    </g>
    <g id="шьфп_копия_7">
      <path id="Прямоугольник_1_копия_15" d="M1041,605V590h-38v15h-2V590h-5v-2h5V578h2v10h38V550h-36v-2h36v-4h2v4h21v2h-21v38h38v-9h2v9h38v-4h2v4h8v2h-8v13h-2V590h-38v8h-2v-8h-38v15Zm-40-37v-4h-4v-2h4v-4h2v4h4v2h-4v4Z" fill="#3c4249"/>
      <path id="Прямоугольник_1_копия_17" d="M1366,590v-5h-10v-2h10V545h-14v-2h14V532h2v11h10v2h-10v38h10v2h-10v5Zm-26-1v-4h-4v-2h4v-4h2v4h4v2h-4v4Z" fill="#3c4249"/>
      <path id="Прямоугольник_1_копия_30" d="M1366,337V325h-7v-2h7V285h-38v11h-2V285h-4v-2h4V272h2v11h38V262h2v21h5v2h-5v38h3v2h-3v12Zm-40-75v-4h-4v-2h4v-4h2v4h4v2h-4v4Z" fill="#3c4249"/>
      <path id="Прямоугольник_1_копия_16" d="M445,595v-5H430v-2h15V550H430v-2h15V510h-8v-2h8V470H432v-2h13V430h-5v-2h5V407h2v21h4v2h-4v38h7v2h-7v38h9v2h-9v38h8v2h-8v38h10v2H447v5Zm26-1v-4h-4v-2h4v-4h2v4h4v2h-4v4Zm-2-120v-4h-4v-2h4v-4h2v4h4v2h-4v4Z" fill="#3c4249"/>
      <path id="Прямоугольник_1_копия_22" d="M694,309V288h-5v-2h5V248H656v9h-2v-9H644v-2h10V224h2v22h38V234h2v12h7v2h-7v38h38V275h2v11h4v2h-4v11h-2V288H696v21Zm24-57v-4h-4v-2h4v-4h2v4h4v2h-4v4Z" fill="#3c4249"/>
    </g>
  </g>
</svg>
