<svg xmlns="http://www.w3.org/2000/svg" width="948" height="381" viewBox="0 0 948 381">
  <g id="_503" transform="translate(-430 -224)">
    <g id="_5">
      <path id="Фигура_860" d="M551,605c-28.2,0-65-31.7-65-65V506h12v17c0,25.2,24.3,70,70,70h44c21.1,0,39-12,39-12s-22.4,24-49,24Zm64-139c0-12.7-10.3-17-17-17H548c-36.2,0-57-16.9-57-47V379h12v14c0,7.2,11.2,44,44,44h60c12,0,20,5.4,20,16v71c0,7.4-12,13-12,13ZM559,338V326h99v12Zm-68-22V285h12v31Z" fill="#3c4249"/>
      <path id="_5_копия" d="M504,368v21a45.163,45.163,0,0,0,3.9,18.5,47.789,47.789,0,0,0,44.3,29.2h58.5a17.281,17.281,0,0,1,12.4,4.8,16.079,16.079,0,0,1,5,12.2v67.6a17.033,17.033,0,0,1-16.8,17.4H570.5A17.117,17.117,0,0,1,553,521.9V493.4H499.3v27.9A67.709,67.709,0,0,0,505,549a72.174,72.174,0,0,0,37.8,37.7,69.38,69.38,0,0,0,27.7,5.7h40.2a66.12,66.12,0,0,0,27.7-5.7,72.689,72.689,0,0,0,37.8-37.6,68.905,68.905,0,0,0,5.7-27.6V454a67.247,67.247,0,0,0-5.7-27.6,72.338,72.338,0,0,0-37.8-37.6,69.38,69.38,0,0,0-27.7-5.7H557.9V325.6H671V272H504v52" fill="none" stroke="#7e8a9c" stroke-width="2"/>
      <g id="Эллипс_862" transform="translate(498 324)">
        <circle id="Эллипс_63" data-name="Эллипс 63" cx="5" cy="5" r="5" fill="none"/>
        <circle id="Эллипс_64" data-name="Эллипс 64" cx="4" cy="4" r="4" transform="translate(1 1)" fill="none" stroke="#7e8a9c" stroke-width="2"/>
      </g>
      <g id="Эллипс_862_копия" transform="translate(498 360)">
        <circle id="Эллипс_65" data-name="Эллипс 65" cx="5" cy="5" r="5" fill="none"/>
        <circle id="Эллипс_66" data-name="Эллипс 66" cx="4" cy="4" r="4" transform="translate(1 1)" fill="none" stroke="#7e8a9c" stroke-width="2"/>
      </g>
    </g>
    <g id="Группа_89_копия_2">
      <path id="Эллипс_634" d="M755,434c0,103.8,91.1,159,161,159,30.3,0,83.7-13.3,114.4-47.2A162.012,162.012,0,1,1,781.7,338.1a164.931,164.931,0,0,1,19.5-19.7C794,326.2,755,364.4,755,434Z" fill="#3c4249"/>
      <g id="Эллипс_634_копия_3" transform="translate(754 270)">
        <circle id="Эллипс_67" data-name="Эллипс 67" cx="162" cy="162" r="162" fill="none"/>
        <circle id="Эллипс_68" data-name="Эллипс 68" cx="161" cy="161" r="161" transform="translate(1 1)" fill="none" stroke="#7e8a9c" stroke-width="2"/>
      </g>
      <g id="Группа_88">
        <path id="Фигура_639" d="M1016.8,332.2l-51.2,51.2m-98.3,98.2-50.7,50.7" fill="none" stroke="#de5846" stroke-width="2"/>
        <path id="Фигура_639_копия" d="M1015.3,532.3,965,481.9m-98.2-98.2-51.5-51.5" fill="none" stroke="#de5846" stroke-width="2"/>
        <g id="Фигура_643">
          <path id="Контур_13" data-name="Контур 13" d="M953.6,492.6l-36.9-36.9-.7-.7-.7.7-36.9,36.9-22.9-22.9,36.9-36.9.7-.7-.7-.7-36.9-36.9,22.9-22.9,36.9,36.9.7.7.7-.7,36.9-36.9,22.9,22.9-36.9,36.9-.7.7.7.7,36.9,36.9Z" fill="#5b1b1b"/>
          <path id="Контур_14" data-name="Контур 14" d="M878.3,373l-21.5,21.5L893,430.7l1.4,1.4-1.4,1.4-36.2,36.2,21.5,21.5L914.5,455l1.4-1.4,1.4,1.4,36.2,36.2L975,469.7l-36.2-36.2-1.4-1.4,1.4-1.4L975,394.5,953.6,373l-36.2,36.2-1.4,1.4-1.4-1.4L878.3,373m0-2.8,37.6,37.6,37.6-37.6,24.3,24.3-37.6,37.6,37.6,37.6L953.6,494,916,456.4,878.3,494,854,469.7l37.6-37.6L854,394.4Z" fill="#de5846"/>
        </g>
      </g>
      <path id="Эллипс_634_копия_2" d="M1027.3,343.8a142.11,142.11,0,0,1,.4,176m-23,23.1a141.933,141.933,0,0,1-177.2.1m-22.9-22.9a141.935,141.935,0,0,1,.9-177.2m22.6-22.4a142,142,0,0,1,176.4.5" fill="none" stroke="#212225" stroke-width="2"/>
      <path id="Эллипс_634_копия" d="M984.6,387.1a82.038,82.038,0,0,1-.4,90.4m-22.9,22.8a82.015,82.015,0,0,1-90.5.1m-23.2-23.1a81.993,81.993,0,0,1,.1-90.6m23.2-23.2a82.181,82.181,0,0,1,90.6.2" fill="none" stroke="#212225" stroke-width="2"/>
      <line id="Фигура_642" x1="44" y1="43" transform="translate(960 500)" fill="none" stroke="#212225" stroke-width="2"/>
      <line id="Фигура_642_копия" x1="44" y1="43" transform="translate(983 476)" fill="none" stroke="#212225" stroke-width="2"/>
      <line id="Фигура_642_копия_2" x1="44" y1="44" transform="translate(805 344)" fill="none" stroke="#212225" stroke-width="2"/>
      <line id="Фигура_642_копия_2-2" x1="44" y1="43" transform="translate(828 321)" fill="none" stroke="#212225" stroke-width="2"/>
      <line id="Фигура_642_копия_3" y1="44" x2="44" transform="translate(804 474.6)" fill="none" stroke="#212225" stroke-width="2"/>
      <line id="Фигура_642_копия_3-2" y1="44" x2="43" transform="translate(829 497.6)" fill="none" stroke="#212225" stroke-width="2"/>
      <line id="Фигура_642_копия_3-3" y1="44" x2="44" transform="translate(960 319.6)" fill="none" stroke="#212225" stroke-width="2"/>
      <line id="Фигура_642_копия_3-4" y1="44" x2="43" transform="translate(984 342.6)" fill="none" stroke="#212225" stroke-width="2"/>
    </g>
    <g id="_3">
      <path id="Фигура_757" d="M1183,605c-3.9,0-31.5-3.4-48-24s-15-41.6-15-50V511h11v13c0,10.3,1.8,32.5,17,47s31.5,23,53,23h37a67.143,67.143,0,0,0,38-12s-18.1,23-51,23Zm56-128c0-7.1-5.6-15-14-15h-49V409h11v42h52c6.6,0,11,8,11,12v63c0,10-11,12-11,12Zm0-126c0-8.1-5.6-13-12-13h-40s.9-11,12-11h39c5,0,12,2.3,12,12v44c0,9-11,13-11,13Zm-119,18V352c0-35.6,22-50,22-50s-11,15.8-11,32v24h43v11Z" fill="#3c4249"/>
      <path id="_3_копия" d="M1155,499h-23v26.2a67.453,67.453,0,0,0,67.1,67.8h38.3a66.014,66.014,0,0,0,26.3-5.2,69.392,69.392,0,0,0,21.5-14.4,67.774,67.774,0,0,0,19.7-48.1V464.5a48.121,48.121,0,0,0-1.5-12,63.242,63.242,0,0,0-4.2-12,40,40,0,0,0-6.6-10.1,26.147,26.147,0,0,0-8.8-6.6,22.007,22.007,0,0,0,8.8-6.3,43.012,43.012,0,0,0,6.6-10.3,65.763,65.763,0,0,0,4.2-12,48.711,48.711,0,0,0,1.5-12V339.9a67.285,67.285,0,0,0-41.2-62.6,65.674,65.674,0,0,0-26.3-5.2h-37.6a67.582,67.582,0,0,0-67.9,67v18.3h53.8V339.9a13.827,13.827,0,0,1,14-14h37.6a13.208,13.208,0,0,1,9.6,3.9,13.553,13.553,0,0,1,3.9,10.1V383a13.487,13.487,0,0,1-13.3,13.6h-49.2v53.8h49a13.208,13.208,0,0,1,9.6,3.9,13.553,13.553,0,0,1,3.9,10.1v60.8a14.1,14.1,0,0,1-3.9,9.8,13.1,13.1,0,0,1-9.6,4.2h-37.6a13.38,13.38,0,0,1-9.8-4.2c-2.8-2.8-4-5.3-4-9V502" fill="none" stroke="#7e8a9c" stroke-width="2"/>
      <g id="Эллипс_757" transform="translate(1154 493)">
        <circle id="Эллипс_69" data-name="Эллипс 69" cx="5" cy="5" r="5" fill="none"/>
        <circle id="Эллипс_70" data-name="Эллипс 70" cx="4" cy="4" r="4" transform="translate(1 1)" fill="none" stroke="#7e8a9c" stroke-width="2"/>
      </g>
      <g id="Эллипс_757-2" transform="translate(1182 493)">
        <circle id="Эллипс_71" data-name="Эллипс 71" cx="5" cy="5" r="5" fill="none"/>
        <circle id="Эллипс_72" data-name="Эллипс 72" cx="4" cy="4" r="4" transform="translate(1 1)" fill="none" stroke="#7e8a9c" stroke-width="2"/>
      </g>
    </g>
    <g id="шьфп_копия_9">
      <path id="Прямоугольник_1_копия_15" d="M1114,605V590h-38v8h-2v-8h-38v13h-2V590h-18v-2h18v-7h2v7h38v-9h2v9h38V550h-21v-2h21v-4h2v4h6v2h-6v38h5v2h-5v15Zm0-67v-4h-4v-2h4v-4h2v4h4v2h-4v4Z" fill="#3c4249"/>
      <path id="Прямоугольник_1_копия_31" d="M765.5,595.5v-6h-38v5h-2v-5h-15v-2h15v-38h-8v-2h8v-38h-13v-2h13v-18h2v18h7v2h-7v38h9v2h-9v38h38v-21h2v21h4v2h-4v6Zm16-2v-4h-4v-2h4v-4h2v4h4v2h-4v4Z" fill="#3c4249"/>
      <path id="Прямоугольник_1_копия_17" d="M1366,520v-5h-10v-2h10V475h-38v6h-2v-6h-4v-2h4V452h2v21h38V435h-9v-2h9V395h-7v-2h7V355h-38v11h-2V355h-4v-2h4V342h2v11h38V332h2v21h5v2h-5v38h3v2h-3v38h3v2h-3v38h10v2h-10v38h10v2h-10v5Zm-26-1v-4h-4v-2h4v-4h2v4h4v2h-4v4Zm-14-187v-4h-4v-2h4v-4h2v4h4v2h-4v4Z" fill="#3c4249"/>
      <path id="Прямоугольник_1_копия_16" d="M445,595v-5H430v-2h15V550H430v-2h15V510h-8v-2h8V470H432v-2h13V430h-5v-2h5V407h2v21h4v2h-4v38h7v2h-7v38h9v2h-9v38h14v2H447v38h10v2H447v5Zm26-1v-4h-4v-2h4v-4h2v4h4v2h-4v4Zm-2-120v-4h-4v-2h4v-4h2v4h4v2h-4v4Z" fill="#3c4249"/>
      <path id="Прямоугольник_1_копия_22" d="M694,309V288h-5v-2h5V248H656v9h-2v-9H644v-2h10V224h2v22h38V234h2v12h7v2h-7v38h38V275h2v11h4v2h-4v11h-2V288H696v21Zm24-57v-4h-4v-2h4v-4h2v4h4v2h-4v4Z" fill="#3c4249"/>
    </g>
  </g>
</svg>
