<?xml version="1.0" encoding="utf-8"?>
<!-- Generator: Adobe Illustrator 25.2.3, SVG Export Plug-In . SVG Version: 6.00 Build 0)  -->
<svg version="1.1" id="Слой_1" xmlns="http://www.w3.org/2000/svg" xmlns:xlink="http://www.w3.org/1999/xlink" x="0px" y="0px"
	 viewBox="0 0 20 20" style="enable-background:new 0 0 20 20;" xml:space="preserve">
<style type="text/css">
	.st0{fill:none;stroke:#000000;stroke-width:2;stroke-linecap:round;stroke-linejoin:round;}
</style>
<g id="Block_Current_Round" transform="translate(-285.341 -731.75)">
	<g id="Group_117" transform="translate(348.75 1025.75)">
		<g id="crypto-currency-bitcoin-monitor-mining">
			<path id="Shape_789" class="st0" d="M-58.3-288.2h-3.5c-0.3,0-0.6-0.3-0.6-0.6v-3.5c0-0.3,0.3-0.6,0.6-0.6h4.8
				c0.3,0,0.6,0.3,0.6,0.6v2.4"/>
			<path id="Shape_790" class="st0" d="M-56.5-278v2.4c0,0.3-0.3,0.6-0.6,0.6h-4.7c-0.3-0.1-0.6-0.3-0.6-0.6v-3.5
				c0-0.3,0.3-0.6,0.6-0.6h3.5"/>
			<path id="Shape_791" class="st0" d="M-50.5-290v-2.4c0-0.3,0.3-0.6,0.6-0.6h4.8c0.3,0,0.6,0.3,0.6,0.6v3.5c0,0.3-0.3,0.6-0.6,0.6
				h-3.6"/>
			<path id="Shape_792" class="st0" d="M-48.7-279.8h3.6c0.3,0,0.6,0.3,0.6,0.6v3.5c0,0.3-0.3,0.6-0.6,0.6h-4.8
				c-0.3,0-0.6-0.3-0.6-0.6v-2.4"/>
			<path id="Shape_793" class="st0" d="M-54.1-291.3h1.1"/>
			<path id="Shape_794" class="st0" d="M-54.1-276.3h1.1"/>
			<path id="Shape_795" class="st0" d="M-60.1-285.8v0.6"/>
			<path id="Shape_796" class="st0" d="M-60.1-282.8v0.6"/>
			<path id="Shape_797" class="st0" d="M-46.9-285.8v0.6"/>
			<path id="Shape_798" class="st0" d="M-46.9-282.8v0.6"/>
		</g>
	</g>
</g>
</svg>
