<?xml version="1.0" encoding="utf-8"?>
<!-- Generator: Adobe Illustrator 22.0.1, SVG Export Plug-In . SVG Version: 6.00 Build 0)  -->
<svg version="1.1" id="Layer_1" xmlns="http://www.w3.org/2000/svg" xmlns:xlink="http://www.w3.org/1999/xlink" x="0px" y="0px"
     viewBox="0 0 22.7 22.7" style="enable-background:new 0 0 22.7 22.7;" xml:space="preserve">
<style type="text/css">
    .block-id-st0{fill:none;stroke:currentColor;stroke-width:1.5;stroke-linecap:round;stroke-linejoin:round;}
</style>
<g id="block_id" transform="translate(-348 -1025)">
    <g id="Group_117" transform="translate(348.75 1025.75)">
        <g id="crypto-currency-bitcoin-monitor-mining">
            <path id="Shape_789" class="block-id-st0" d="M5,5.7H0.7C0.3,5.7,0,5.3,0,5l0,0V0.7C0,0.3,0.3,0,0.7,0c0,0,0,0,0,0h5.7
                c0.4,0,0.7,0.3,0.7,0.7l0,0v2.8"/>
            <path id="Shape_790" class="block-id-st0" d="M7.1,17.7v2.8c0,0.4-0.3,0.7-0.7,0.7c0,0,0,0,0,0H0.7c-0.4,0-0.7-0.3-0.7-0.7l0,0v-4.2
                c0-0.4,0.3-0.7,0.7-0.7c0,0,0,0,0,0H5"/>
            <path id="Shape_791" class="block-id-st0" d="M14.2,3.5V0.7c0-0.4,0.3-0.7,0.7-0.7c0,0,0,0,0,0h5.7c0.4,0,0.7,0.3,0.7,0.7l0,0V5
                c0,0.4-0.3,0.7-0.7,0.7c0,0,0,0,0,0h-4.2"/>
            <path id="Shape_792" class="block-id-st0" d="M16.3,15.6h4.2c0.4,0,0.7,0.3,0.7,0.7l0,0v4.2c0,0.4-0.3,0.7-0.7,0.7c0,0,0,0,0,0h-5.7
                c-0.4,0-0.7-0.3-0.7-0.7l0,0v-2.8"/>
            <path id="Shape_793" class="block-id-st0" d="M9.9,2.1h1.4"/>
            <path id="Shape_794" class="block-id-st0" d="M9.9,19.8h1.4"/>
            <path id="Shape_795" class="block-id-st0" d="M2.8,8.5v0.7"/>
            <path id="Shape_796" class="block-id-st0" d="M2.8,12v0.7"/>
            <path id="Shape_797" class="block-id-st0" d="M18.4,8.5v0.7"/>
            <path id="Shape_798" class="block-id-st0" d="M18.4,12v0.7"/>
        </g>
    </g>
</g>
</svg>
