<svg xmlns="http://www.w3.org/2000/svg" viewBox="0 0 22.7 22.7"><g fill="none" stroke="currentColor" stroke-width="2" stroke-linecap="2" stroke-linejoin="round"><path d="M5.75 6.45h-4.3c-.4 0-.7-.4-.7-.7v-4.3c0-.4.3-.7.7-.7h5.7c.4 0 .7.3.7.7v2.8M7.85 18.45v2.8c0 .4-.3.7-.7.7h-5.7c-.4 0-.7-.3-.7-.7v-4.2c0-.4.3-.7.7-.7h4.3M14.95 4.25v-2.8c0-.4.3-.7.7-.7h5.7c.4 0 .7.3.7.7v4.3c0 .4-.3.7-.7.7h-4.2M17.05 16.35h4.2c.4 0 .7.3.7.7v4.2c0 .4-.3.7-.7.7h-5.7c-.4 0-.7-.3-.7-.7v-2.8M10.65 2.85h1.4M10.65 20.55h1.4M3.55 9.25v.7M3.55 12.75v.7M19.15 9.25v.7M19.15 12.75v.7"/></g></svg>