<svg xmlns="http://www.w3.org/2000/svg" viewBox="0 0 22.7 22.7"><path d="M5.75 6.45h-4.3c-.4 0-.7-.4-.7-.7v-4.3c0-.4.3-.7.7-.7h5.7c.4 0 .7.3.7.7v2.8m0 14.2v2.8c0 .4-.3.7-.7.7h-5.7c-.4 0-.7-.3-.7-.7v-4.2c0-.4.3-.7.7-.7h4.3m9.2-12.1v-2.8c0-.4.3-.7.7-.7h5.7c.4 0 .7.3.7.7v4.3c0 .4-.3.7-.7.7h-4.2m-.1 9.9h4.2c.4 0 .7.3.7.7v4.2c0 .4-.3.7-.7.7h-5.7c-.4 0-.7-.3-.7-.7v-2.8m-4.2-15.6h1.4m-1.4 17.7h1.4m-8.5-11.3v.7m0 2.8v.7m15.6-4.2v.7m0 2.8v.7" fill="none" stroke="currentColor" stroke-width="2" stroke-linecap="2" stroke-linejoin="round"/></svg>