<svg xmlns="http://www.w3.org/2000/svg" viewBox="0 0 20 20"><style>.block-id-st0{fill:none;stroke:currentColor;stroke-width:2;stroke-linecap:round;stroke-linejoin:round}</style><path class="block-id-st0" d="M5.109 5.8h-3.5c-.3 0-.6-.3-.6-.6V1.7c0-.3.3-.6.6-.6h4.8c.3 0 .6.3.6.6v2.4M6.909 16v2.4c0 .3-.3.6-.6.6h-4.7c-.3-.1-.6-.3-.6-.6v-3.5c0-.3.3-.6.6-.6h3.5M12.909 4V1.6c0-.3.3-.6.6-.6h4.8c.3 0 .6.3.6.6v3.5c0 .3-.3.6-.6.6h-3.6M14.709 14.2h3.6c.3 0 .6.3.6.6v3.5c0 .3-.3.6-.6.6h-4.8c-.3 0-.6-.3-.6-.6v-2.4M9.309 2.7h1.1M9.309 17.7h1.1M3.309 8.2v.6M3.309 11.2v.6M16.509 8.2v.6M16.509 11.2v.6"/></svg>