<svg xmlns="http://www.w3.org/2000/svg" viewBox="0 0 19.25 19.25"><g data-name="Money-Payments-Finance / Crypto-Currencies / crypto-currency-bitcoin-monitor-mining"><g fill="none" stroke="currentColor" stroke-linecap="round" stroke-linejoin="round" stroke-width="2" data-name="Group 117"><path data-name="Shape 789" d="M5.025 5.6h-3.45A.575.575 0 011 5.025v-3.45A.575.575 0 011.575 1h4.6a.575.575 0 01.575.575v2.3"/><path data-name="Shape 790" d="M6.75 15.375v2.3a.575.575 0 01-.575.575h-4.6A.575.575 0 011 17.675v-3.45a.575.575 0 01.575-.575h3.45"/><path data-name="Shape 791" d="M12.5 3.875v-2.3A.575.575 0 0113.075 1h4.6a.575.575 0 01.575.575v3.45a.575.575 0 01-.575.575h-3.45"/><path data-name="Shape 792" d="M14.225 13.65h3.45a.575.575 0 01.575.575v3.45a.575.575 0 01-.575.575h-4.6a.575.575 0 01-.575-.575v-2.3"/><path data-name="Shape 793" d="M9.05 2.725h1.15"/><path data-name="Shape 794" d="M9.05 17.1h1.15"/><path data-name="Shape 795" d="M3.3 7.9v.575"/><path data-name="Shape 796" d="M3.3 10.775v.575"/><path data-name="Shape 797" d="M15.95 7.9v.575"/><path data-name="Shape 798" d="M15.95 10.775v.575"/></g></g></svg>