<?xml version="1.0" encoding="utf-8"?>
<!-- Generator: Adobe Illustrator 22.0.1, SVG Export Plug-In . SVG Version: 6.00 Build 0)  -->
<svg version="1.1" id="Layer_1" xmlns="http://www.w3.org/2000/svg" xmlns:xlink="http://www.w3.org/1999/xlink" x="0px" y="0px"
	 viewBox="0 0 22.8 23.7" style="enable-background:new 0 0 22.8 23.7;" xml:space="preserve">
<style type="text/css">
	.st0{fill:none;stroke:#212225;stroke-width:1.5;stroke-linecap:round;}
	.st1{fill:none;}
	.st2{fill:#212225;}
</style>
<g id="Business_Registration" transform="translate(-406.561 -270.043)">
	<path id="Фигура_1006_копия" class="st0" d="M423,273.5c0,0,2.6,1.5,4.1,2.4s1.1,2.9-0.6,2.9h-7l-2.9,0c0,0-4.8,0-6.7,0
		c-1.9,0-2.3-1.9-0.8-2.9s4-2.4,4-2.4"/>
	<g id="Forma_1_копия" transform="translate(-15.074 -0.957)">
		<path class="st1" d="M430,275.4v0.8c0,0.3,0.2,0.5,0.4,0.6l2.4,0.9c0.2,0.1,0.4,0.1,0.6,0l2.4-0.9c0.3-0.1,0.4-0.3,0.4-0.6v-4.5
			c0-0.4-0.3-0.7-0.7-0.7h-4.8c-0.2,0-0.5,0.1-0.6,0.3c-0.1,0.1-0.2,0.3-0.2,0.4V275.4z"/>
		<path class="st2" d="M433.2,276.2l1.7-0.7v-0.1l0-1.4v-1.6h-3.4v1.5v1.4v0.2L433.2,276.2 M433.2,277.8c-0.1,0-0.2,0-0.3-0.1
			l-2.4-0.9c-0.3-0.1-0.4-0.3-0.4-0.6v-0.8V274v-2.3c0-0.2,0.1-0.3,0.2-0.4c0.1-0.2,0.4-0.3,0.6-0.3h4.8c0.4,0,0.7,0.3,0.7,0.7v2.4
			l0,1.4v0.7c0,0.3-0.2,0.5-0.4,0.6l-2.4,0.9C433.4,277.8,433.3,277.8,433.2,277.8z"/>
	</g>
	<path id="Прямоугольник_скругл._углы_780" class="st0" d="M409.7,289.4h-0.4c-1-0.1-1.8,0.6-1.9,1.6
		s0.6,1.8,1.6,1.9c0.1,0,0.2,0,0.4,0h17.6c1,0,1.8-0.7,1.8-1.7s-0.7-1.8-1.7-1.8c0,0-0.1,0-0.1,0c0,0-8.7,0-13.9,0
		c-1.1,0-1.2-1.2-0.5-1.5"/>
	<line id="Фигура_1008" class="st0" x1="410" y1="279.5" x2="410" y2="284.5"/>
	<line id="Фигура_1008_копия_2" class="st0" x1="416" y1="279.5" x2="416" y2="282.5"/>
	<line id="Фигура_1008_копия_3" class="st0" x1="423" y1="279.5" x2="423" y2="280.5"/>
	<path id="Фигура_1006" class="st0" d="M426.1,283.4c0,0-5.9,3.3-6.5,3.6s-1.1,0.4-1.5-0.2s-0.3-0.4-0.5-0.8
		c-0.3-0.4-0.8-0.5-1.2-0.2l-3.9,2.1"/>
	<path id="Фигура_1007" class="st0" d="M424.3,282.7c0.6-0.1,1.6-0.2,2-0.2c0.4,0,0.5-0.2,0.3,0.5c-0.3,0.6-0.6,1.2-0.9,1.8"
		/>
</g>
</svg>
