<?xml version="1.0" encoding="utf-8"?>
<!-- Generator: Adobe Illustrator 25.2.3, SVG Export Plug-In . SVG Version: 6.00 Build 0)  -->
<svg version="1.1" id="Слой_1" xmlns="http://www.w3.org/2000/svg" xmlns:xlink="http://www.w3.org/1999/xlink" x="0px" y="0px"
	 viewBox="0 0 20 20" style="enable-background:new 0 0 20 20;" xml:space="preserve">
<style type="text/css">
	.st0{fill:none;stroke:#000000;stroke-width:2;stroke-linecap:round;stroke-linejoin:round;}
</style>
<g id="Timestamp" transform="translate(-187.636 -2553.75)">
	<g id="Group_266" transform="translate(303.755 2847.75)">
		<g id="calendar-3">
			<path id="Rectangle-path_79" class="st0" d="M-115.1-289.4c0-0.6,0.5-1.2,1.2-1.2h15.6c0.6,0,1.2,0.5,1.2,1.2v13.1
				c0,0.6-0.5,1.2-1.2,1.2h-15.6c-0.6,0-1.2-0.5-1.2-1.2V-289.4z"/>
			<path id="Shape_1209" class="st0" d="M-115.1-285.8h17.4"/>
			<path id="Shape_1210" class="st0" d="M-110.3-288.8v-4.2"/>
			<path id="Shape_1211" class="st0" d="M-102-288.8v-4.2"/>
			<path id="Shape_1212" class="st0" d="M-111.2-282.7c-0.2,0-0.3,0.1-0.3,0.3s0.1,0.3,0.3,0.3c0.2-0.1,0.3-0.2,0.3-0.3l0,0
				C-110.9-282.6-111-282.7-111.2-282.7"/>
			<path id="Shape_1213" class="st0" d="M-111.2-278.5c-0.2,0-0.3,0.1-0.3,0.3s0.1,0.3,0.3,0.3c0.2,0,0.3-0.1,0.3-0.3l0,0
				C-110.9-278.4-111-278.5-111.2-278.5"/>
			<path id="Shape_1214" class="st0" d="M-106.2-282.7c-0.2,0-0.3,0.1-0.3,0.3s0.1,0.3,0.3,0.3s0.3-0.1,0.3-0.3l0,0
				C-105.9-282.6-106-282.7-106.2-282.7"/>
			<path id="Shape_1215" class="st0" d="M-106.2-278.5c-0.2,0-0.3,0.1-0.3,0.3s0.1,0.3,0.3,0.3s0.3-0.1,0.3-0.3l0,0
				C-105.9-278.4-106-278.5-106.2-278.5"/>
			<path id="Shape_1216" class="st0" d="M-101-282.7c-0.2,0-0.3,0.1-0.3,0.3s0.1,0.3,0.3,0.3c0.2,0,0.3-0.1,0.3-0.3l0,0
				C-100.7-282.6-100.9-282.7-101-282.7"/>
			<path id="Shape_1217" class="st0" d="M-101-278.5c-0.2,0-0.3,0.1-0.3,0.3s0.1,0.3,0.3,0.3c0.2,0,0.3-0.1,0.3-0.3l0,0
				C-100.7-278.4-100.9-278.5-101-278.5"/>
		</g>
	</g>
</g>
</svg>
