<?xml version="1.0" encoding="utf-8"?>
<!-- Generator: Adobe Illustrator 22.0.1, SVG Export Plug-In . SVG Version: 6.00 Build 0)  -->
<svg version="1.1" id="Layer_1" xmlns="http://www.w3.org/2000/svg" xmlns:xlink="http://www.w3.org/1999/xlink" x="0px" y="0px"
	 viewBox="0 0 23.5 24.6" style="enable-background:new 0 0 23.5 24.6;" xml:space="preserve">
<style type="text/css">
	.st0{fill:none;stroke:#212225;stroke-width:1.5;stroke-linecap:round;stroke-linejoin:round;}
	.st1{fill:none;}
	.st2{fill:#212225;}
</style>
<g id="current_delegate" transform="translate(-418 -2757)">
	<g id="Regular_384">
		<path id="Shape_1503" class="st0" d="M418.8,2775.2c0-3.7,3-6.8,6.8-6.7c0.9,0,1.8,0.2,2.6,0.5"/>
		<path id="Oval_562" class="st0" d="M425.5,2766c2.3,0,4.1-1.8,4.1-4.1s-1.8-4.1-4.1-4.1s-4.1,1.8-4.1,4.1l0,0
			C421.4,2764.2,423.2,2766,425.5,2766z"/>
	</g>
	<g id="Многоугольник_1790" transform="translate(-496.499 2037.422)">
		<path class="st1" d="M931.5,744.2l-6.5-3.5v-7.1l6.5-3.5l6.5,3.5v7.1L931.5,744.2z"/>
		<path class="st2" d="M931.5,742.5l5-2.7v-5.3l-5-2.7l-5,2.7v5.3L931.5,742.5 M931.5,744.2l-6.5-3.5v-7.1l6.5-3.5l6.5,3.5v7.1
			L931.5,744.2z"/>
	</g>
	<path id="Многоугольник_1790_копия" class="st0" d="M435.1,2776.3l0-1.9l-4.4-2.4"/>
</g>
</svg>
