<?xml version="1.0" encoding="utf-8"?>
<!-- Generator: Adobe Illustrator 25.0.0, SVG Export Plug-In . SVG Version: 6.00 Build 0)  -->
<svg version="1.1" id="Слой_1" xmlns="http://www.w3.org/2000/svg" xmlns:xlink="http://www.w3.org/1999/xlink" x="0px" y="0px"
	 viewBox="0 0 23.1 24.7" style="enable-background:new 0 0 23.1 24.7;" xml:space="preserve">
<style type="text/css">
	.delegate-name-st0{fill:none;stroke:currentColor;stroke-width:2;stroke-linecap:round;stroke-linejoin:round;}
</style>
<g id="Delegate_Name" transform="translate(-421.937 -2616.75)">
	<g id="Group_354" transform="translate(423.037 2617.75)">
		<g id="Regular_354">
			<path id="Shape_1416" class="delegate-name-st0" d="M20.4,14.3l-7.6,7.6L9,22.7l0.8-3.8l7.6-7.6c0.8-0.8,2.2-0.8,3,0l0,0
				C21.2,12.1,21.2,13.5,20.4,14.3z"/>
			<path id="Oval_511" class="delegate-name-st0" d="M7.1,8.7c2.4,0,4.3-1.9,4.3-4.2c0,0,0,0,0-0.1C11.4,2,9.5,0.1,7.2,0S2.8,1.9,2.8,4.3
				C2.8,6.7,4.7,8.7,7.1,8.7z"/>
			<path id="Shape_1393" class="delegate-name-st0" d="M10.2,12.3c-1-0.5-2.1-0.7-3.2-0.7c-3.9,0-7.1,3.2-7.1,7.1"/>
		</g>
	</g>
</g>
</svg>
