<svg xmlns="http://www.w3.org/2000/svg" viewBox="0 0 20 20"><style>.delegate-st1{fill:none;stroke:currentColor;stroke-width:2;stroke-linecap:round;stroke-linejoin:round}</style><path fill="none" stroke="currentColor" stroke-width="2" stroke-linecap="round" d="M16.861 1l-10.3 18"/><path class="delegate-st1" d="M6.861 6.9c1.4 0 2.7-1.1 2.7-2.7 0-1.5-1.2-2.7-2.7-2.7s-2.7 1.2-2.7 2.7c0 1.5 1.1 2.7 2.7 2.7zM8.761 9.8c-.6-.3-1.2-.5-1.9-.5-2.5 0-4.4 2-4.4 4.4M15.1 18.4c1.4 0 2.7-1.1 2.7-2.7 0-1.5-1.2-2.7-2.7-2.7s-2.7 1.2-2.7 2.7c0 1.5 1.1 2.7 2.7 2.7z"/></svg>