<?xml version="1.0" encoding="utf-8"?>
<!-- Generator: Adobe Illustrator 22.0.1, SVG Export Plug-In . SVG Version: 6.00 Build 0)  -->
<svg version="1.1" id="Layer_1" xmlns="http://www.w3.org/2000/svg" xmlns:xlink="http://www.w3.org/1999/xlink" x="0px" y="0px"
	 viewBox="0 0 20.4 24.5" style="enable-background:new 0 0 20.4 24.5;" xml:space="preserve">
<style type="text/css">
	.delegate-st0{fill:none;stroke:currentColor;stroke-width:1.5;stroke-linecap:round;}
	.delegate-st1{fill:none;stroke:currentColor;stroke-width:1.5;stroke-linecap:round;stroke-linejoin:round;}
</style>
<g id="Delegate_Registration" transform="translate(0.189 1.025)">
	<line id="Фигура_525" class="delegate-st0" x1="18.6" y1="0" x2="5.6" y2="22.5"/>
	<path id="Oval_511" class="delegate-st1" d="M6,7.4c1.8,0,3.3-1.5,3.3-3.3S7.9,0.7,6,0.7C4.2,0.7,2.7,2.2,2.7,4C2.7,5.9,4.2,7.4,6,7.4z"/>
	<path id="Shape_1393" class="delegate-st1" d="M8.5,11c-0.8-0.4-1.6-0.6-2.4-0.6c-3,0-5.5,2.4-5.5,5.5c0,0,0,0,0,0"/>
	<path id="Oval_511-2" class="delegate-st1" d="M16.1,21.2c1.8,0,3.3-1.5,3.3-3.3s-1.5-3.3-3.3-3.3c-1.8,0-3.3,1.5-3.3,3.3
		C12.8,19.7,14.3,21.2,16.1,21.2z"/>
</g>
</svg>
