<?xml version="1.0" encoding="utf-8"?>
<!-- Generator: Adobe Illustrator 25.2.3, SVG Export Plug-In . SVG Version: 6.00 Build 0)  -->
<svg version="1.1" id="Слой_1" xmlns="http://www.w3.org/2000/svg" xmlns:xlink="http://www.w3.org/1999/xlink" x="0px" y="0px"
	 viewBox="0 0 20 20" style="enable-background:new 0 0 20 20;" xml:space="preserve">
<style type="text/css">
	.st0{fill:none;stroke:#000000;stroke-width:2;stroke-linecap:round;stroke-linejoin:round;}
</style>
<g id="Interface-Essential_Search_search-bar" transform="translate(278.412 -3262.75)">
	<g id="Group_338" transform="translate(303.755 3442.75)">
		<g id="search-bar">
			<path id="Shape_1549" class="st0" d="M-564.4-174.3v-1.1c0-0.7-0.4-1.2-1.1-1.2h-14.4c-0.7,0-1.2,0.6-1.2,1.2v4.8
				c0,0.7,0.6,1.2,1.2,1.2h4.2"/>
			<path id="Oval_206" class="st0" d="M-569.2-165.2c2.3,0,4.2-1.9,4.2-4.2s-1.9-4.2-4.2-4.2c-2.2,0.1-4.1,2-4.1,4.2l0,0
				C-573.4-167.1-571.5-165.2-569.2-165.2z"/>
			<path id="Shape_1550" class="st0" d="M-563.2-163.4l-3-3"/>
		</g>
	</g>
</g>
<path id="Shape_1212" class="st0" d="M3.7,6.6c-0.2,0-0.3,0.1-0.3,0.3s0.1,0.3,0.3,0.3C3.9,7.1,4,7,4,6.9l0,0C4,6.7,3.9,6.6,3.7,6.6
	"/>
<path id="Shape_1214" class="st0" d="M6.7,6.6c-0.2,0-0.3,0.1-0.3,0.3s0.1,0.3,0.3,0.3S7,7.1,7,6.9l0,0C7,6.7,6.9,6.6,6.7,6.6"/>
</svg>
