<?xml version="1.0" encoding="utf-8"?>
<!-- Generator: Adobe Illustrator 25.2.3, SVG Export Plug-In . SVG Version: 6.00 Build 0)  -->
<svg version="1.1" id="Слой_1" xmlns="http://www.w3.org/2000/svg" xmlns:xlink="http://www.w3.org/1999/xlink" x="0px" y="0px"
	 viewBox="0 0 20 20" style="enable-background:new 0 0 20 20;" xml:space="preserve">
<style type="text/css">
	.st0{fill:none;stroke:#000000;stroke-width:2;stroke-linecap:round;stroke-linejoin:round;}
</style>
<g id="Vote" transform="translate(-41.8 -993.3)">
	<path id="Shape_1764" class="st0" d="M60.8,1005.7v4.1c0,1.4-1.1,2.6-2.5,2.6h-0.1H45.4c-1.4,0-2.6-1.1-2.6-2.5v-0.1v-12.9
		c0-1.4,1.1-2.6,2.5-2.6h0.1h6.7"/>
	<g id="check-double-1-2" transform="translate(397.625 1170.654)">
		<path id="Shape_1757-2" class="st0" d="M-336.8-174.3l-7.3,9.8c-0.4,0.5-0.9,0.5-1.4,0.2l-0.1-0.1l-1.9-1.9"/>
		<path id="Shape_1758-2" class="st0" d="M-348-164.3c-0.4,0.4-1,0.4-1.4,0l0,0l-1.9-1.9"/>
		<path id="Shape_1759-2" class="st0" d="M-340.5-174.2l-5.2,7"/>
	</g>
</g>
</svg>
