<?xml version="1.0" encoding="utf-8"?>
<!-- Generator: Adobe Illustrator 25.2.3, SVG Export Plug-In . SVG Version: 6.00 Build 0)  -->
<svg version="1.1" id="Слой_1" xmlns="http://www.w3.org/2000/svg" xmlns:xlink="http://www.w3.org/1999/xlink" x="0px" y="0px"
	 viewBox="0 0 20 20" style="enable-background:new 0 0 20 20;" xml:space="preserve">
<style type="text/css">
	.st0{fill:none;stroke:#000000;stroke-width:2;stroke-linecap:round;stroke-linejoin:round;}
</style>
<g id="Exchange" transform="translate(528 -409.171)">
	<g id="Group_75" transform="translate(348.75 736.326)">
		<g id="currency-euro-dollar-exchange">
			<path id="Oval_23" class="st0" d="M-862-317.6c2.4,0,4.3-2,4.3-4.3s-2-4.3-4.3-4.3c-2.4,0-4.3,2-4.3,4.3S-864.5-317.6-862-317.6
				L-862-317.6z"/>
			<path id="Oval_24" class="st0" d="M-871.3-308.2c2.4,0,4.4-2,4.4-4.4s-2-4.4-4.4-4.4s-4.4,2-4.4,4.4S-873.8-308.2-871.3-308.2
				L-871.3-308.2z"/>
			<path id="Shape_505" class="st0" d="M-875.8-323.2l1.8,3l3-1.8"/>
			<path id="Shape_506" class="st0" d="M-869.8-326.1c-2.2,0.8-3.7,3.1-3.5,5.5"/>
			<path id="Shape_507" class="st0" d="M-857.8-311.2l-1.8-3l-3,1.8"/>
			<path id="Shape_508" class="st0" d="M-863.8-308.3c2.2-0.8,3.7-3.1,3.5-5.5"/>
		</g>
	</g>
</g>
</svg>
