<?xml version="1.0" encoding="utf-8"?>
<!-- Generator: Adobe Illustrator 22.0.1, SVG Export Plug-In . SVG Version: 6.00 Build 0)  -->
<svg version="1.1" id="Layer_1" xmlns="http://www.w3.org/2000/svg" xmlns:xlink="http://www.w3.org/1999/xlink" x="0px" y="0px"
	 viewBox="0 0 18.8 18.5" style="enable-background:new 0 0 18.8 18.5;" xml:space="preserve">
<style type="text/css">
	.st0{fill:none;stroke:currentColor;stroke-width:1.5;stroke-linecap:round;stroke-linejoin:round;}
</style>
<g id="Money-Payments-Finance_Currencies_currency-euro-dollar-exchange" transform="translate(-347.721 -735.476)">
	<g id="Group_75" transform="translate(348.75 736.326)">
		<g id="currency-euro-dollar-exchange">
			<path id="Oval_23" class="st0" d="M12.7,8.1c2.2,0,4-1.8,4-4s-1.8-4-4-4c-2.2,0-4,1.8-4,4S10.5,8.1,12.7,8.1
				C12.7,8.1,12.7,8.1,12.7,8.1z"/>
			<path id="Oval_24" class="st0" d="M4.1,16.8c2.3,0,4.1-1.8,4.1-4.1c0-2.3-1.8-4.1-4.1-4.1S0,10.4,0,12.7
				C0,14.9,1.8,16.8,4.1,16.8C4.1,16.8,4.1,16.8,4.1,16.8z"/>
			<path id="Shape_505" class="st0" d="M0,2.8l1.7,2.8l2.8-1.7"/>
			<path id="Shape_506" class="st0" d="M5.6,0.1C3.4,0.9,2.1,3,2.3,5.2"/>
			<path id="Shape_507" class="st0" d="M16.8,14l-1.7-2.8l-2.8,1.7"/>
			<path id="Shape_508" class="st0" d="M11.2,16.7c2.1-0.8,3.5-2.9,3.3-5.1"/>
		</g>
	</g>
</g>
</svg>
