<svg xmlns="http://www.w3.org/2000/svg" viewBox="0 0 20 20"><style>.exchange-st0{fill:none;stroke:currentColor;stroke-width:2;stroke-linecap:round;stroke-linejoin:round}</style><g transform="translate(528 -409.171)"><g transform="translate(348.75 736.326)"><g><path class="exchange-st0" d="M-862-317.6c2.4 0 4.3-2 4.3-4.3s-2-4.3-4.3-4.3c-2.4 0-4.3 2-4.3 4.3s1.8 4.3 4.3 4.3z"/><path class="exchange-st0" d="M-871.3-308.2c2.4 0 4.4-2 4.4-4.4s-2-4.4-4.4-4.4-4.4 2-4.4 4.4 1.9 4.4 4.4 4.4z"/><path class="exchange-st0" d="M-875.8-323.2l1.8 3 3-1.8"/><path class="exchange-st0" d="M-869.8-326.1c-2.2.8-3.7 3.1-3.5 5.5"/><path class="exchange-st0" d="M-857.8-311.2l-1.8-3-3 1.8"/><path class="exchange-st0" d="M-863.8-308.3c2.2-.8 3.7-3.1 3.5-5.5"/></g></g></g></svg>