<?xml version="1.0" encoding="utf-8"?>
<!-- Generator: Adobe Illustrator 25.2.3, SVG Export Plug-In . SVG Version: 6.00 Build 0)  -->
<svg version="1.1" id="Слой_1" xmlns="http://www.w3.org/2000/svg" xmlns:xlink="http://www.w3.org/1999/xlink" x="0px" y="0px"
	 viewBox="0 0 20 20" style="enable-background:new 0 0 20 20;" xml:space="preserve">
<style type="text/css">
	.st0{fill:none;stroke:#000000;stroke-width:2;stroke-linecap:round;stroke-linejoin:round;}
</style>
<g id="Filter" transform="translate(174.9 104.2)">
	<g id="Сгруппировать_767">
		<line id="Линия_125" class="st0" x1="-159.9" y1="-95.6" x2="-159.9" y2="-103.2"/>
		<line id="Линия_126" class="st0" x1="-159.9" y1="-85.2" x2="-159.9" y2="-89.2"/>
		<path id="Контур_459" class="st0" d="M-156.8-92.2c0,1.7-1.4,3-3,3c-1.7,0-3-1.4-3-3s1.4-3,3-3l0,0l0,0
			C-158.2-95.1-156.8-93.9-156.8-92.2L-156.8-92.2z"/>
	</g>
	<g id="Сгруппировать_766">
		<line id="Линия_127" class="st0" x1="-169.8" y1="-97.1" x2="-169.8" y2="-85.2"/>
		<path id="Контур_460" class="st0" d="M-166.9-100.2c0-1.7-1.4-3-3-3s-3,1.4-3,3c0,1.7,1.4,3,3,3l0,0
			C-168.1-97.1-166.9-98.5-166.9-100.2C-166.9-100.1-166.9-100.2-166.9-100.2z"/>
	</g>
</g>
</svg>
