<?xml version="1.0" encoding="utf-8"?>
<!-- Generator: Adobe Illustrator 25.2.3, SVG Export Plug-In . SVG Version: 6.00 Build 0)  -->
<svg version="1.1" id="Слой_1" xmlns="http://www.w3.org/2000/svg" xmlns:xlink="http://www.w3.org/1999/xlink" x="0px" y="0px"
	 viewBox="0 0 20 20" style="enable-background:new 0 0 20 20;" xml:space="preserve">
<style type="text/css">
	.st0{fill:none;stroke:#000000;stroke-width:2;stroke-linecap:round;stroke-linejoin:round;}
</style>
<g id="Forging" transform="translate(677.004 -700.75)">
	<g id="Group_115" transform="translate(252.75 1026.75)">
		<g id="crypto-currency-bitcoin-mining">
			<path id="Oval_33" class="st0" d="M-915.5-307c2.6,0,4.8-2.2,4.8-4.8c0-2.6-2.2-4.8-4.8-4.8s-4.8,2.2-4.8,4.8
				C-920.4-309.1-918.2-307-915.5-307L-915.5-307z"/>
			<path id="Shape_776" class="st0" d="M-920-319.6l-6.1,7c-0.5,0.6-1.5,0.6-2.2,0l0,0l0,0c-0.6-0.6-0.6-1.5,0-2.2l7-6.1"/>
			<path id="Shape_777" class="st0" d="M-916.9-318.9c-0.4-1.2-1.1-2.2-1.9-3.1c-2.1-2.1-4-2.2-7.2-3c2.6,2.1,5,4.3,7.3,6.7"/>
		</g>
	</g>
</g>
</svg>
