<?xml version="1.0" encoding="utf-8"?>
<!-- Generator: Adobe Illustrator 22.0.1, SVG Export Plug-In . SVG Version: 6.00 Build 0)  -->
<svg version="1.1" id="Layer_1" xmlns="http://www.w3.org/2000/svg" xmlns:xlink="http://www.w3.org/1999/xlink" x="0px" y="0px"
	 viewBox="0 0 20 20" style="enable-background:new 0 0 20 20;" xml:space="preserve">
<style type="text/css">
	.st0{fill:none;stroke:#000000;stroke-width:1.5;stroke-linecap:round;stroke-linejoin:round;}
</style>
<g id="forged" transform="translate(-252 -1025)">
	<g id="Group_115" transform="translate(252.75 1025.75)">
		<g id="crypto-currency-bitcoin-mining">
			<path id="Oval_33" class="st0" d="M13.6,18.5c2.7,0,4.9-2.2,4.9-4.9s-2.2-4.9-4.9-4.9s-4.9,2.2-4.9,4.9
				C8.6,16.3,10.9,18.5,13.6,18.5C13.6,18.5,13.6,18.5,13.6,18.5z"/>
			<path id="Shape_776" class="st0" d="M9,5.5l-6.3,7.3c-0.6,0.6-1.6,0.6-2.2,0c0,0,0,0,0,0l0,0c-0.6-0.6-0.6-1.6,0-2.2l7.3-6.3"/>
			<path id="Shape_777" class="st0" d="M12.2,6.2c-0.4-1.2-1.1-2.2-2-3.1C8.1,0.9,6,0.8,2.8,0C5.5,2.1,8,4.5,10.3,7"/>
		</g>
	</g>
</g>
</svg>
