<svg xmlns="http://www.w3.org/2000/svg" viewBox="0 0 20 20"><style>.height-st0{fill:none;stroke:currentColor;stroke-width:2;stroke-linecap:round;stroke-linejoin:round}</style><g transform="translate(120.86 -1721.075)"><g transform="translate(205.75 1826.75)"><g><path class="height-st0" d="M-311.4-101.6v12.7"/><path class="height-st0" d="M-314.8-98.1l3-3.3c.2-.2.6-.2.8 0l3 3.3"/><path class="height-st0" d="M-325.2-92.8c0-.4.3-.8.8-.8h5.3c.4 0 .8.3.8.8v5.3c0 .4-.3.8-.8.8h-5.3c-.4 0-.8-.3-.8-.8v-5.3z"/><path class="height-st0" d="M-325.2-103.9c0-.4.3-.8.8-.8h5.3c.4 0 .8.3.8.8v5.3c0 .4-.3.8-.8.8h-5.3c-.4 0-.8-.3-.8-.7v-5.4z"/></g></g></g></svg>