<?xml version="1.0" encoding="utf-8"?>
<!-- Generator: Adobe Illustrator 22.0.1, SVG Export Plug-In . SVG Version: 6.00 Build 0)  -->
<svg version="1.1" id="Layer_1" xmlns="http://www.w3.org/2000/svg" xmlns:xlink="http://www.w3.org/1999/xlink" x="0px" y="0px"
	 viewBox="0 0 20.1 16" style="enable-background:new 0 0 20.1 16;" xml:space="preserve">
<style type="text/css">
	.height-st0{fill:none;stroke:currentColor;stroke-width:2;stroke-linecap:round;stroke-linejoin:round;}
</style>
<g id="height" transform="translate(-11.7 -13.997)">
	<path id="Shape_1030" class="height-st0" d="M23.1,26.9c0.4,0.6,0.9,1.2,1.5,1.6l0.7,0.5"/>
	<path id="Shape_1031" class="height-st0" d="M12.7,29l0.7-0.5c1.3-0.9,2.1-2.4,2.2-4l0.4-7c0.1-1.5,1.4-2.7,3-2.7h0.1"/>
	<path id="Shape_1032" class="height-st0" d="M18.1,29l0.7-0.5c1.3-0.9,2.1-2.4,2.2-4l0.4-7c0.1-1.5,1.4-2.7,3-2.7l0,0c1.5,0,2.8,1.2,3,2.7
		l0.4,7c0.1,1.6,0.9,3.1,2.2,4l0.7,0.5"/>
</g>
</svg>
