<?xml version="1.0" encoding="utf-8"?>
<!-- Generator: Adobe Illustrator 25.2.3, SVG Export Plug-In . SVG Version: 6.00 Build 0)  -->
<svg version="1.1" id="Слой_1" xmlns="http://www.w3.org/2000/svg" xmlns:xlink="http://www.w3.org/1999/xlink" x="0px" y="0px"
	 viewBox="0 0 20 20" style="enable-background:new 0 0 20 20;" xml:space="preserve">
<style type="text/css">
	.st0{fill:none;stroke:#000000;stroke-width:2;stroke-linecap:round;stroke-linejoin:round;}
</style>
<g id="Height" transform="translate(120.86 -1721.075)">
	<g id="Group_167" transform="translate(205.75 1826.75)">
		<g id="reorder-up">
			<path id="Shape_819" class="st0" d="M-311.4-101.6v12.7"/>
			<path id="Shape_820" class="st0" d="M-314.8-98.1l3-3.3c0.2-0.2,0.6-0.2,0.8,0l0,0l3,3.3"/>
			<path id="Rectangle-path_103" class="st0" d="M-325.2-92.8c0-0.4,0.3-0.8,0.8-0.8l0,0h5.3c0.4,0,0.8,0.3,0.8,0.8l0,0v5.3
				c0,0.4-0.3,0.8-0.8,0.8l0,0h-5.3c-0.4,0-0.8-0.3-0.8-0.8l0,0V-92.8z"/>
			<path id="Rectangle-path_103-2" class="st0" d="M-325.2-103.9c0-0.4,0.3-0.8,0.8-0.8l0,0h5.3c0.4,0,0.8,0.3,0.8,0.8l0,0v5.3
				c0,0.4-0.3,0.8-0.8,0.8l0,0h-5.3c-0.4,0-0.8-0.3-0.8-0.7l0,0V-103.9z"/>
		</g>
	</g>
</g>
</svg>
