<?xml version="1.0" encoding="utf-8"?>
<!-- Generator: Adobe Illustrator 22.0.1, SVG Export Plug-In . SVG Version: 6.00 Build 0)  -->
<svg version="1.1" id="Layer_1" xmlns="http://www.w3.org/2000/svg" xmlns:xlink="http://www.w3.org/1999/xlink" x="0px" y="0px"
	 viewBox="0 0 24 25" style="enable-background:new 0 0 24 25;" xml:space="preserve">
<style type="text/css">
	.st0{fill:none;stroke:#212225;stroke-width:1.5;stroke-linecap:round;stroke-linejoin:round;}
</style>
<g id="netx_delegate" transform="translate(-418 -2757)">
	<g id="Group_384">
		<g id="Regular_384">
			<path id="Shape_1503" class="st0" d="M418.8,2775.2c0-3.7,3-6.8,6.8-6.7c0.9,0,1.8,0.2,2.6,0.5"/>
			<path id="Oval_562" class="st0" d="M425.5,2766c2.3,0,4.1-1.8,4.1-4.1s-1.8-4.1-4.1-4.1s-4.1,1.8-4.1,4.1l0,0
				C421.4,2764.2,423.2,2766,425.5,2766z"/>
			<path id="Oval_563" class="st0" d="M435.2,2781.2c3.3,0,6-2.7,6-6s-2.7-6-6-6s-6,2.7-6,6S431.9,2781.2,435.2,2781.2z"/>
			<path id="Shape_1504" class="st0" d="M437.9,2775.3h-2.6v-2.7"/>
		</g>
	</g>
</g>
</svg>
