<svg xmlns="http://www.w3.org/2000/svg" viewBox="0 0 20 20"><style>.price-st0{fill:none;stroke:currentColor;stroke-width:2;stroke-linecap:round;stroke-linejoin:round}</style><path class="price-st0" d="M3.675 11.668c.071-.071.212-.071.283 0s.07.212 0 .283-.212.07-.283 0c-.141 0-.07-.213 0-.283M12.231 8.062c.071-.071.212-.071.283 0s.07.212 0 .282-.212.071-.283 0-.07-.212 0-.282"/><path class="price-st0" d="M1.271 12.516a1.002 1.002 0 010-1.414l7.92-7.92a1.002 1.002 0 011.414 0l4.313 4.314c.425.424.354 1.06 0 1.414l-7.92 7.92a1.002 1.002 0 01-1.414 0l-4.313-4.314z"/><path class="price-st0" d="M9.332 11.243c.707-.707.636-1.767 0-2.545-.707-.707-1.768-.636-2.545 0-.637.778-.566 1.838 0 2.545.777.637 1.838.708 2.545 0zM14.423 3.182l4.314 4.314c.424.424.353 1.06 0 1.414l-7.99 7.99"/></svg>