<svg xmlns="http://www.w3.org/2000/svg" viewBox="0 0 20 20"><style>.price-st0{fill:none;stroke:currentColor;stroke-width:2;stroke-linecap:round;stroke-linejoin:round}</style><g transform="rotate(-45 -81.36 605.752)"><g transform="translate(396.75 245.5)"><g><path class="price-st0" d="M2.1.3c.1 0 .2.1.2.2s-.1.2-.2.2-.2-.1-.2-.2c-.1-.1.1-.2.2-.2"/><path class="price-st0" d="M10.7 3.8c.1 0 .2.1.2.2s-.1.2-.2.2-.2-.1-.2-.2.1-.2.2-.2"/><path class="price-st0" d="M-.2-.8c0-.6.5-1 1-1H12c.6 0 1 .5 1 1v6.1c0 .6-.5 1-1 1H.8c-.6 0-1-.5-1-1V-.8z"/><path class="price-st0" d="M6.4 4c1 0 1.7-.8 1.8-1.8 0-1-.8-1.7-1.8-1.8-1 .1-1.7.9-1.8 1.8.1 1 .8 1.8 1.8 1.8z"/><path class="price-st0" d="M15.7 1.9V8c0 .6-.5 1-1 1H3.4"/></g></g></g></svg>