<?xml version="1.0" encoding="utf-8"?>
<!-- Generator: Adobe Illustrator 25.2.3, SVG Export Plug-In . SVG Version: 6.00 Build 0)  -->
<svg version="1.1" id="Слой_1" xmlns="http://www.w3.org/2000/svg" xmlns:xlink="http://www.w3.org/1999/xlink" x="0px" y="0px"
	 viewBox="0 0 20 20" style="enable-background:new 0 0 20 20;" xml:space="preserve">
<style type="text/css">
	.qr-code-st0{fill:none;stroke:currentColor;stroke-width:2;stroke-linecap:round;stroke-linejoin:round;}
</style>
<g id="qr-code" transform="translate(492.25 443.25)">
	<path id="Контур_329" class="qr-code-st0" d="M-491.2-432.6v1.2h1.2"/>
	<rect id="Прямоугольник_313" x="-491.2" y="-442.2" class="qr-code-st0" width="4.5" height="4.5"/>
	<rect id="Прямоугольник_314" x="-478" y="-442.2" class="qr-code-st0" width="4.8" height="4.8"/>
	<rect id="Прямоугольник_315" x="-491.2" y="-429" class="qr-code-st0" width="4.8" height="4.8"/>
	<line id="Линия_15" class="qr-code-st0" x1="-482.2" y1="-442.2" x2="-480.4" y2="-442.2"/>
	<path id="Контур_330" class="qr-code-st0" d="M-484-442.2v2.4h1.8"/>
	<path id="Контур_331" class="qr-code-st0" d="M-480.4-439.9v2.4h-3.6"/>
	<path id="Контур_332" class="qr-code-st0" d="M-491.2-435h4.8v1.2"/>
	<line id="Линия_16" class="qr-code-st0" x1="-487.6" y1="-431.5" x2="-486.5" y2="-431.5"/>
	<path id="Контур_333" class="qr-code-st0" d="M-473.2-424.2h-2.4v-2.4h2.4v-2.4h-2.4"/>
	<path id="Контур_334" class="qr-code-st0" d="M-480.4-424.2h-3.6v-4.8"/>
	<line id="Линия_17" class="qr-code-st0" x1="-478" y1="-429" x2="-478" y2="-424.2"/>
	<path id="Контур_335" class="qr-code-st0" d="M-481.6-429h1.2v2.4h-1.2"/>
	<path id="Контур_336" class="qr-code-st0" d="M-484-432.6v1.2h1.2"/>
	<line id="Линия_18" class="qr-code-st0" x1="-480.4" y1="-431.5" x2="-478" y2="-431.5"/>
	<line id="Линия_19" class="qr-code-st0" x1="-479.4" y1="-431.5" x2="-479.4" y2="-433.9"/>
	<path id="Контур_337" class="qr-code-st0" d="M-484-435h2.4v1.2"/>
	<line id="Линия_20" class="qr-code-st0" x1="-473.2" y1="-435" x2="-473.2" y2="-433.9"/>
	<line id="Линия_21" class="qr-code-st0" x1="-473.2" y1="-432" x2="-473.2" y2="-431.5"/>
	<path id="Контур_338" class="qr-code-st0" d="M-476.9-435v1.2h1.2v1.8"/>
</g>
</svg>
