<svg xmlns="http://www.w3.org/2000/svg" viewBox="0 0 20 20"><style>.qr-code-st0{fill:none;stroke:currentColor;stroke-width:2;stroke-linecap:round;stroke-linejoin:round}</style><g transform="translate(492.25 443.25)"><path class="qr-code-st0" d="M-491.2-432.6v1.2h1.2"/><path class="qr-code-st0" d="M-491.2-442.2h4.5v4.5h-4.5z"/><path class="qr-code-st0" d="M-478-442.2h4.8v4.8h-4.8z"/><path class="qr-code-st0" d="M-491.2-429h4.8v4.8h-4.8z"/><path class="qr-code-st0" d="M-482.2-442.2h1.8"/><path class="qr-code-st0" d="M-484-442.2v2.4h1.8"/><path class="qr-code-st0" d="M-480.4-439.9v2.4h-3.6"/><path class="qr-code-st0" d="M-491.2-435h4.8v1.2"/><path class="qr-code-st0" d="M-487.6-431.5h1.1"/><path class="qr-code-st0" d="M-473.2-424.2h-2.4v-2.4h2.4v-2.4h-2.4"/><path class="qr-code-st0" d="M-480.4-424.2h-3.6v-4.8"/><path class="qr-code-st0" d="M-478-429v4.8"/><path class="qr-code-st0" d="M-481.6-429h1.2v2.4h-1.2"/><path class="qr-code-st0" d="M-484-432.6v1.2h1.2"/><path class="qr-code-st0" d="M-480.4-431.5h2.4"/><path class="qr-code-st0" d="M-479.4-431.5v-2.4"/><path class="qr-code-st0" d="M-484-435h2.4v1.2"/><path class="qr-code-st0" d="M-473.2-435v1.1"/><path class="qr-code-st0" d="M-473.2-432v.5"/><path class="qr-code-st0" d="M-476.9-435v1.2h1.2v1.8"/></g></svg>