<?xml version="1.0" encoding="utf-8"?>
<!-- Generator: Adobe Illustrator 25.2.3, SVG Export Plug-In . SVG Version: 6.00 Build 0)  -->
<svg version="1.1" id="Слой_1" xmlns="http://www.w3.org/2000/svg" xmlns:xlink="http://www.w3.org/1999/xlink" x="0px" y="0px"
	 viewBox="0 0 20 20" style="enable-background:new 0 0 20 20;" xml:space="preserve">
<style type="text/css">
	.st0{fill:none;stroke:currentColor;stroke-width:2;stroke-linecap:round;stroke-linejoin:round;}
</style>
<g id="Transcations_Volume_Total_Supply" transform="translate(-298.148 -732)">
	<g id="Group_123" transform="translate(636.75 1028)">
		<g id="crypto-currency-bitcoin-stack-coins">
			<path id="Oval_38" class="st0" d="M-323.2-279.7c2,0,3.6-1.6,3.6-3.6s-1.6-3.4-3.6-3.4s-3.6,1.6-3.6,3.6
				C-326.8-281.1-325.1-279.7-323.2-279.7L-323.2-279.7z"/>
			<path id="Shape_843" class="st0" d="M-331.3-282.3h-4.3c-0.3,0-0.7,0.3-0.7,0.7l0,0v2.4c0,0.3,0.3,0.7,0.7,0.7h6.2"/>
			<path id="Shape_844" class="st0" d="M-330.7-286h-3.8c-0.3,0-0.7,0.3-0.7,0.7l0,0v2.3c0,0.3,0.3,0.7,0.7,0.7h3.1"/>
			<path id="Shape_845" class="st0" d="M-329-289.7h-8c-0.3,0-0.7,0.2-0.7,0.6l0,0v2.4c0,0.3,0.3,0.7,0.7,0.7h6.2"/>
			<path id="Shape_846" class="st0" d="M-326.4-290.4v-2.4c0-0.3-0.3-0.7-0.7-0.7l0,0h-8.7c-0.3,0-0.7,0.3-0.7,0.7l0,0v2.4
				c0,0.3,0.3,0.7,0.7,0.7"/>
		</g>
	</g>
</g>
</svg>
