<svg version="1.1" id="Layer_1" xmlns="http://www.w3.org/2000/svg" x="0" y="0" viewBox="0 0 21.248 17.398" xml:space="preserve"><g id="Money-Payments-Finance_Crypto-Currencies_crypto-currency-bitcoin-stack-coins" transform="translate(-635.75 -1027)"><g id="Group_123" transform="translate(636.75 1028)"><g id="crypto-currency-bitcoin-stack-coins" fill="none" stroke="currentColor" stroke-width="2" stroke-linecap="round" stroke-linejoin="round"><path id="Oval_38" d="M14.115 15.399a5.133 5.133 0 100-10.266 5.133 5.133 0 000 10.266h0z"/><path id="Shape_843" d="M6.416 11.549H1.925a.642.642 0 00-.642.642v2.566c0 .355.287.642.642.642h6.416"/><path id="Shape_844" d="M7.057 7.699h-3.85a.642.642 0 00-.642.642v2.566c0 .355.287.642.642.642h3.209"/><path id="Shape_845" d="M8.982 3.85H.641a.642.642 0 00-.642.642v2.566c0 .355.287.642.642.642h6.416"/><path id="Shape_846" d="M11.549 3.208V.642A.642.642 0 0010.907 0H1.925a.642.642 0 00-.642.642v2.566c0 .355.287.642.642.642"/></g></g></g></svg>