<svg xmlns="http://www.w3.org/2000/svg" viewBox="0 0 20 20"><style>.supply-st0{fill:none;stroke:currentColor;stroke-width:2;stroke-linecap:round;stroke-linejoin:round}</style><path class="supply-st0" d="M15.402 16.3c2 0 3.6-1.6 3.6-3.6s-1.6-3.4-3.6-3.4-3.6 1.6-3.6 3.6 1.7 3.4 3.6 3.4zM7.302 13.7h-4.3c-.3 0-.7.3-.7.7v2.4c0 .3.3.7.7.7h6.2M7.902 10h-3.8c-.3 0-.7.3-.7.7V13c0 .3.3.7.7.7h3.1M9.602 6.3h-8c-.3 0-.7.2-.7.6v2.4c0 .3.3.7.7.7h6.2M12.202 5.6V3.2c0-.3-.3-.7-.7-.7h-8.7c-.3 0-.7.3-.7.7v2.4c0 .3.3.7.7.7"/></svg>