<svg xmlns="http://www.w3.org/2000/svg" viewBox="0 0 19.081 19.081">
  <g id="Interface-Essential_Date_Calendar_calendar-3" data-name="Interface-Essential / Date/Calendar / calendar-3" transform="translate(-302.755 -2846.75)">
    <g id="Group_266" data-name="Group 266" transform="translate(303.755 2847.75)">
      <g id="calendar-3">
        <path id="Rectangle-path_79" data-name="Rectangle-path 79" fill="none" stroke="currentColor" stroke-linecap="round" stroke-linejoin="round" stroke-width="2" d="M303.755,2851.889a1.139,1.139,0,0,1,1.139-1.139h14.8a1.139,1.139,0,0,1,1.139,1.139v12.526a1.139,1.139,0,0,1-1.139,1.139h-14.8a1.139,1.139,0,0,1-1.139-1.139Z" transform="translate(-303.755 -2848.473)"/>
        <path id="Shape_1209" data-name="Shape 1209" fill="none" stroke="currentColor" stroke-linecap="round" stroke-linejoin="round" stroke-width="2" d="M303.755,2856.75h17.081" transform="translate(-303.755 -2849.918)"/>
        <path id="Shape_1210" data-name="Shape 1210" fill="none" stroke="currentColor" stroke-linecap="round" stroke-linejoin="round" stroke-width="2" d="M309.755,2851.735v-3.985" transform="translate(-305.2 -2847.75)"/>
        <path id="Shape_1211" data-name="Shape 1211" fill="none" stroke="currentColor" stroke-linecap="round" stroke-linejoin="round" stroke-width="2" d="M320.255,2851.735v-3.985" transform="translate(-307.729 -2847.75)"/>
        <path id="Shape_1212" data-name="Shape 1212" fill="none" stroke="currentColor" stroke-linecap="round" stroke-linejoin="round" stroke-width="2" d="M308.54,2860.5a.285.285,0,1,0,.285.285.285.285,0,0,0-.285-.285" transform="translate(-304.839 -2850.821)"/>
        <path id="Shape_1213" data-name="Shape 1213" fill="none" stroke="currentColor" stroke-linecap="round" stroke-linejoin="round" stroke-width="2" d="M308.54,2865.75a.285.285,0,1,0,.285.285.285.285,0,0,0-.285-.285" transform="translate(-304.839 -2852.085)"/>
        <path id="Shape_1214" data-name="Shape 1214" fill="none" stroke="currentColor" stroke-linecap="round" stroke-linejoin="round" stroke-width="2" d="M314.915,2860.5a.285.285,0,1,0,.285.285.285.285,0,0,0-.285-.285" transform="translate(-306.374 -2850.821)"/>
        <path id="Shape_1215" data-name="Shape 1215" fill="none" stroke="currentColor" stroke-linecap="round" stroke-linejoin="round" stroke-width="2" d="M314.915,2865.75a.285.285,0,1,0,.285.285.285.285,0,0,0-.285-.285" transform="translate(-306.374 -2852.085)"/>
        <path id="Shape_1216" data-name="Shape 1216" fill="none" stroke="currentColor" stroke-linecap="round" stroke-linejoin="round" stroke-width="2" d="M321.29,2860.5a.285.285,0,1,0,.285.285.285.285,0,0,0-.285-.285" transform="translate(-307.91 -2850.821)"/>
        <path id="Shape_1217" data-name="Shape 1217" fill="none" stroke="currentColor" stroke-linecap="round" stroke-linejoin="round" stroke-width="2" d="M321.29,2865.75a.285.285,0,1,0,.285.285.285.285,0,0,0-.285-.285" transform="translate(-307.91 -2852.085)"/>
      </g>
    </g>
  </g>
</svg>
