<svg xmlns="http://www.w3.org/2000/svg" viewBox="0 0 19.1 19.1"><g fill="none" stroke="currentColor" stroke-width="2" stroke-linecap="round" stroke-linejoin="round"><path d="M1 4.4c0-.6.5-1.1 1.1-1.1h14.8c.6 0 1.1.5 1.1 1.1v12.5c0 .6-.5 1.1-1.1 1.1H2.1c-.6 0-1.1-.5-1.1-1.1V4.4zm0 3.4h17.1M5.6 5V1m7.9 4V1"/><path d="M4.7 10.7c-.2 0-.3.1-.3.3 0 .2.1.3.3.3.2-.1.3-.2.3-.3h0c0-.2-.1-.3-.3-.3m0 4c-.2 0-.3.1-.3.3 0 .2.1.3.3.3.2 0 .3-.1.3-.3h0c0-.2-.1-.3-.3-.3m4.8-4c-.2 0-.3.1-.3.3 0 .2.1.3.3.3.2 0 .3-.1.3-.3h0c0-.2-.1-.3-.3-.3m0 4c-.2 0-.3.1-.3.3 0 .2.1.3.3.3.2 0 .3-.1.3-.3h0c0-.2-.1-.3-.3-.3m4.9-4c-.2 0-.3.1-.3.3 0 .2.1.3.3.3.2 0 .3-.1.3-.3h0c0-.2-.2-.3-.3-.3m0 4c-.2 0-.3.1-.3.3 0 .2.1.3.3.3.2 0 .3-.1.3-.3h0c0-.2-.2-.3-.3-.3"/></g></svg>