<svg xmlns="http://www.w3.org/2000/svg" viewBox="0 0 19.081 19.081"><g
><g fill="none" stroke="currentColor" stroke-linecap="round" stroke-linejoin="round" stroke-width="2"
><path  d="M1 4.416a1.139 1.139 0 011.139-1.139h14.8a1.139 1.139 0 011.139 1.139v12.526a1.139 1.139 0 01-1.139 1.139h-14.8A1.139 1.139 0 011 16.942z"/><path  d="M1 7.832h17.081"/><path  d="M5.555 4.985V1"/><path  d="M13.526 4.985V1"/><path  d="M4.701 10.679a.285.285 0 10.285.285.285.285 0 00-.285-.285"/><path  d="M4.701 14.665a.285.285 0 10.285.285.285.285 0 00-.285-.285"/><path  d="M9.541 10.679a.285.285 0 10.285.285.285.285 0 00-.285-.285"/><path  d="M9.541 14.665a.285.285 0 10.285.285.285.285 0 00-.285-.285"/><path  d="M14.38 10.679a.285.285 0 10.285.285.285.285 0 00-.285-.285"/><path  d="M14.38 14.665a.285.285 0 10.285.285.285.285 0 00-.285-.285"/></g></g></svg>
