<svg xmlns="http://www.w3.org/2000/svg" viewBox="0 0 19.081 19.081"><g data-name="Interface-Essential / Date/Calendar / calendar-3"><g fill="none" stroke="currentColor" stroke-linecap="round" stroke-linejoin="round" stroke-width="2" data-name="Group 266"><path data-name="Rectangle-path 79" d="M1 4.416a1.139 1.139 0 011.139-1.139h14.8a1.139 1.139 0 011.139 1.139v12.526a1.139 1.139 0 01-1.139 1.139h-14.8A1.139 1.139 0 011 16.942z"/><path data-name="Shape 1209" d="M1 7.832h17.081"/><path data-name="Shape 1210" d="M5.555 4.985V1"/><path data-name="Shape 1211" d="M13.526 4.985V1"/><path data-name="Shape 1212" d="M4.701 10.679a.285.285 0 10.285.285.285.285 0 00-.285-.285"/><path data-name="Shape 1213" d="M4.701 14.665a.285.285 0 10.285.285.285.285 0 00-.285-.285"/><path data-name="Shape 1214" d="M9.541 10.679a.285.285 0 10.285.285.285.285 0 00-.285-.285"/><path data-name="Shape 1215" d="M9.541 14.665a.285.285 0 10.285.285.285.285 0 00-.285-.285"/><path data-name="Shape 1216" d="M14.38 10.679a.285.285 0 10.285.285.285.285 0 00-.285-.285"/><path data-name="Shape 1217" d="M14.38 14.665a.285.285 0 10.285.285.285.285 0 00-.285-.285"/></g></g></svg>