<svg xmlns="http://www.w3.org/2000/svg" viewBox="0 0 19.081 19.081"><g fill="none" stroke="currentColor" stroke-linecap="round" stroke-linejoin="round" stroke-width="2"><path d="M1 4.416a1.139 1.139 0 011.139-1.139h14.8a1.139 1.139 0 011.139 1.139v12.526a1.139 1.139 0 01-1.139 1.139h-14.8A1.139 1.139 0 011 16.942zm0 3.416h17.081M5.555 4.985V1m7.971 3.985V1"/><path d="M4.701 10.679a.285.285 0 10.285.285.285.285 0 00-.285-.285m0 3.986a.285.285 0 10.285.285.285.285 0 00-.285-.285m4.84-3.986a.285.285 0 10.285.285.285.285 0 00-.285-.285m0 3.986a.285.285 0 10.285.285.285.285 0 00-.285-.285m4.839-3.986a.285.285 0 10.285.285.285.285 0 00-.285-.285m0 3.986a.285.285 0 10.285.285.285.285 0 00-.285-.285"/></g></svg>