<?xml version="1.0" encoding="utf-8"?>
<!-- Generator: Adobe Illustrator 22.0.1, SVG Export Plug-In . SVG Version: 6.00 Build 0)  -->
<svg version="1.1" id="Layer_1" xmlns="http://www.w3.org/2000/svg" xmlns:xlink="http://www.w3.org/1999/xlink" x="0px" y="0px"
	 viewBox="0 0 19.1 19.1" style="enable-background:new 0 0 19.1 19.1;" xml:space="preserve">
<g id="Timestamp" transform="translate(-302.755 -2846.75)">
	<g id="Group_266" transform="translate(303.755 2847.75)">
		<g id="calendar-3">
			<path id="Rectangle-path_79" fill="none" stroke="currentColor" stroke-width="2" stroke-linecap="round" stroke-linejoin="round" d="M0,3.4c0-0.6,0.5-1.1,1.1-1.1h14.8c0.6,0,1.1,0.5,1.1,1.1v12.5
				c0,0.6-0.5,1.1-1.1,1.1H1.1c-0.6,0-1.1-0.5-1.1-1.1V3.4z"/>
			<path id="Shape_1209" fill="none" stroke="currentColor" stroke-width="2" stroke-linecap="round" stroke-linejoin="round" d="M0,6.8h17.1"/>
			<path id="Shape_1210" fill="none" stroke="currentColor" stroke-width="2" stroke-linecap="round" stroke-linejoin="round" d="M4.6,4V0"/>
			<path id="Shape_1211" fill="none" stroke="currentColor" stroke-width="2" stroke-linecap="round" stroke-linejoin="round" d="M12.5,4V0"/>
			<path id="Shape_1212" fill="none" stroke="currentColor" stroke-width="2" stroke-linecap="round" stroke-linejoin="round" d="M3.7,9.7c-0.2,0-0.3,0.1-0.3,0.3c0,0.2,0.1,0.3,0.3,0.3C3.9,10.2,4,10.1,4,10l0,0
				C4,9.8,3.9,9.7,3.7,9.7"/>
			<path id="Shape_1213" fill="none" stroke="currentColor" stroke-width="2" stroke-linecap="round" stroke-linejoin="round" d="M3.7,13.7c-0.2,0-0.3,0.1-0.3,0.3c0,0.2,0.1,0.3,0.3,0.3c0.2,0,0.3-0.1,0.3-0.3l0,0
				C4,13.8,3.9,13.7,3.7,13.7"/>
			<path id="Shape_1214" fill="none" stroke="currentColor" stroke-width="2" stroke-linecap="round" stroke-linejoin="round" d="M8.5,9.7c-0.2,0-0.3,0.1-0.3,0.3c0,0.2,0.1,0.3,0.3,0.3c0.2,0,0.3-0.1,0.3-0.3l0,0
				C8.8,9.8,8.7,9.7,8.5,9.7"/>
			<path id="Shape_1215" fill="none" stroke="currentColor" stroke-width="2" stroke-linecap="round" stroke-linejoin="round" d="M8.5,13.7c-0.2,0-0.3,0.1-0.3,0.3c0,0.2,0.1,0.3,0.3,0.3c0.2,0,0.3-0.1,0.3-0.3l0,0
				C8.8,13.8,8.7,13.7,8.5,13.7"/>
			<path id="Shape_1216" fill="none" stroke="currentColor" stroke-width="2" stroke-linecap="round" stroke-linejoin="round" d="M13.4,9.7c-0.2,0-0.3,0.1-0.3,0.3c0,0.2,0.1,0.3,0.3,0.3c0.2,0,0.3-0.1,0.3-0.3l0,0
				C13.7,9.8,13.5,9.7,13.4,9.7"/>
			<path id="Shape_1217" fill="none" stroke="currentColor" stroke-width="2" stroke-linecap="round" stroke-linejoin="round" d="M13.4,13.7c-0.2,0-0.3,0.1-0.3,0.3c0,0.2,0.1,0.3,0.3,0.3c0.2,0,0.3-0.1,0.3-0.3l0,0
				C13.7,13.8,13.5,13.7,13.4,13.7"/>
		</g>
	</g>
</g>
</svg>
