<svg xmlns="http://www.w3.org/2000/svg" viewBox="0 0 18.194 15.428"><g data-name="Money-Payments-Finance / Crypto-Currencies / crypto-currency-bitcoin-stack-coins"><g fill="none" stroke="currentColor" stroke-linecap="round" stroke-linejoin="round" stroke-width="2" data-name="Group 123"><path data-name="Oval 38" d="M14.014 13.428a3.181 3.181 0 10-3.181-3.181 3.181 3.181 0 003.181 3.181z"/><path data-name="Shape 843" d="M6.595 11.071H2.679a.56.56 0 00-.56.56v2.238a.56.56 0 00.56.559h5.6"/><path data-name="Shape 844" d="M7.155 7.714H3.798a.56.56 0 00-.56.56v2.238a.56.56 0 00.56.559h2.8"/><path data-name="Shape 845" d="M8.833 4.357H1.56a.56.56 0 00-.56.56v2.238a.56.56 0 00.56.559h5.6"/><path data-name="Shape 846" d="M11.069 3.8V1.562a.56.56 0 00-.56-.56h-7.83a.56.56 0 00-.56.56V3.8a.56.56 0 00.56.559"/></g></g></svg>