<svg xmlns="http://www.w3.org/2000/svg" viewBox="0 0 18.194 15.428">
  <g id="Money-Payments-Finance_Crypto-Currencies_crypto-currency-bitcoin-stack-coins" data-name="Money-Payments-Finance / Crypto-Currencies / crypto-currency-bitcoin-stack-coins" transform="translate(-635.75 -1027)">
    <g id="Group_123" data-name="Group 123" transform="translate(636.75 1028)">
      <g id="crypto-currency-bitcoin-stack-coins">
        <path id="Oval_38" data-name="Oval 38" d="M650.431,1040.361a3.181,3.181,0,1,0-3.181-3.181A3.181,3.181,0,0,0,650.431,1040.361Z" transform="translate(-637.417 -1027.933)" fill="none" stroke="currentColor" stroke-linecap="round" stroke-linejoin="round" stroke-width="2"/>
        <path id="Shape_843" data-name="Shape 843" d="M642.726,1041.5H638.81a.56.56,0,0,0-.56.56v2.238a.56.56,0,0,0,.56.559h5.6" transform="translate(-637.131 -1031.429)" fill="none" stroke="currentColor" stroke-linecap="round" stroke-linejoin="round" stroke-width="2"/>
        <path id="Shape_844" data-name="Shape 844" d="M643.667,1037H640.31a.56.56,0,0,0-.56.56v2.238a.56.56,0,0,0,.56.559h2.8" transform="translate(-637.512 -1030.286)" fill="none" stroke="currentColor" stroke-linecap="round" stroke-linejoin="round" stroke-width="2"/>
        <path id="Shape_845" data-name="Shape 845" d="M644.583,1032.5H637.31a.56.56,0,0,0-.56.56v2.238a.56.56,0,0,0,.56.559h5.6" transform="translate(-636.75 -1029.143)" fill="none" stroke="currentColor" stroke-linecap="round" stroke-linejoin="round" stroke-width="2"/>
        <path id="Shape_846" data-name="Shape 846" d="M647.2,1030.8v-2.238a.56.56,0,0,0-.56-.56H638.81a.56.56,0,0,0-.56.56v2.238a.56.56,0,0,0,.56.559" transform="translate(-637.131 -1028)" fill="none" stroke="currentColor" stroke-linecap="round" stroke-linejoin="round" stroke-width="2"/>
      </g>
    </g>
  </g>
</svg>
