<?xml version="1.0" encoding="utf-8"?>
<!-- Generator: Adobe Illustrator 25.0.0, SVG Export Plug-In . SVG Version: 6.00 Build 0)  -->
<svg version="1.1" id="Слой_1" xmlns="http://www.w3.org/2000/svg" xmlns:xlink="http://www.w3.org/1999/xlink" x="0px" y="0px"
	 viewBox="0 0 17.5 13.3" style="enable-background:new 0 0 17.5 13.3;" xml:space="preserve">
<style type="text/css">
	.st0{fill:none;stroke:#007DFF;stroke-width:1.5;stroke-linecap:round;stroke-linejoin:round;}
</style>
<g id="Interface-Essential_Search_search-bar" transform="translate(-303.005 -3442)">
	<g id="Group_338" transform="translate(303.755 3442.75)">
		<g id="search-bar">
			<path id="Shape_1547" class="st0" d="M2.4,3.4c-0.1,0-0.3,0.1-0.3,0.3c0,0.1,0.1,0.3,0.3,0.3c0.1,0,0.3-0.1,0.3-0.3l0,0
				C2.6,3.5,2.5,3.4,2.4,3.4"/>
			<path id="Shape_1548" class="st0" d="M5,3.4c-0.1,0-0.3,0.1-0.3,0.3c0,0.1,0.1,0.3,0.3,0.3c0.1,0,0.3-0.1,0.3-0.3l0,0
				C5.2,3.5,5.1,3.4,5,3.4"/>
			<path id="Shape_1549" class="st0" d="M14.7,2.1v-1c0-0.6-0.5-1-1-1c0,0,0,0,0,0H1c-0.6,0-1,0.5-1,1l0,0v4.2c0,0.6,0.5,1,1,1
				c0,0,0,0,0,0h3.7"/>
			<path id="Oval_206" class="st0" d="M10.5,10c2,0,3.7-1.6,3.7-3.7c0-2-1.6-3.7-3.7-3.7c-2,0-3.7,1.6-3.7,3.7
				C6.8,8.3,8.5,10,10.5,10z"/>
			<path id="Shape_1550" class="st0" d="M15.7,11.5l-2.6-2.6"/>
		</g>
	</g>
</g>
</svg>
