<?xml version="1.0" encoding="utf-8"?>
<!-- Generator: Adobe Illustrator 22.0.1, SVG Export Plug-In . SVG Version: 6.00 Build 0)  -->
<svg version="1.1" id="Layer_1" xmlns="http://www.w3.org/2000/svg" xmlns:xlink="http://www.w3.org/1999/xlink" x="0px" y="0px"
	 viewBox="0 0 21.5 18.1" style="enable-background:new 0 0 21.5 18.1;" xml:space="preserve">
<style type="text/css">
	.st0{fill:none;stroke:#000000;stroke-width:1.5;stroke-linecap:round;stroke-linejoin:round;}
</style>
<g id="votes" transform="translate(-636 -1027.25)">
	<g id="Group_123" transform="translate(636.75 1028)">
		<g id="crypto-currency-bitcoin-stack-coins">
			<path id="Oval_38" class="st0" d="M15.4,15.3c2.5,0,4.6-2,4.6-4.6c0-2.5-2-4.6-4.6-4.6c-2.5,0-4.6,2-4.6,4.6S12.9,15.3,15.4,15.3
				L15.4,15.3z"/>
			<path id="Shape_843" class="st0" d="M6.9,12.4H2.1c-0.4,0-0.7,0.3-0.7,0.7v2.8c0,0.4,0.3,0.7,0.7,0.7H9"/>
			<path id="Shape_844" class="st0" d="M7.6,8.3H3.5C3.1,8.3,2.8,8.6,2.8,9v2.8c0,0.4,0.3,0.7,0.7,0.7h3.5"/>
			<path id="Shape_845" class="st0" d="M9.7,4.1h-9C0.3,4.1,0,4.5,0,4.8v2.8C0,8,0.3,8.3,0.7,8.3h6.9"/>
			<path id="Shape_846" class="st0" d="M12.4,3.5V0.7c0-0.4-0.3-0.7-0.7-0.7H2.1C1.7,0,1.4,0.3,1.4,0.7v2.8c0,0.4,0.3,0.7,0.7,0.7"
				/>
		</g>
	</g>
</g>
</svg>
