<?xml version="1.0" encoding="utf-8"?>
<!-- Generator: Adobe Illustrator 25.2.3, SVG Export Plug-In . SVG Version: 6.00 Build 0)  -->
<svg version="1.1" id="Слой_1" xmlns="http://www.w3.org/2000/svg" xmlns:xlink="http://www.w3.org/1999/xlink" x="0px" y="0px"
	 viewBox="0 0 20 20" style="enable-background:new 0 0 20 20;" xml:space="preserve">
<style type="text/css">
	.st0{fill:none;stroke:#000000;stroke-width:2;stroke-linecap:round;stroke-linejoin:round;}
</style>
<g id="Recipients_Wallets_Balance" transform="translate(82.309 35.988)">
	<g id="Group_29" transform="translate(588.75 290.012)">
		<g id="money-wallet">
			<path id="Shape_185" class="st0" d="M-653.3-310.8v1.2c0,1.3-1,2.4-2.4,2.4l0,0h-12c-1.3,0-2.4-1-2.4-2.4l0,0v-8.5
				c0-1.3,1-2.4,2.4-2.4l0,0h11.9c1.3,0,2.4,1,2.4,2.4l0,0v1.2"/>
			<path id="Shape_186" class="st0" d="M-655.9-320.9l-1.7-3.3c-0.3-0.6-1-0.8-1.6-0.5l0,0l-7.8,3.8"/>
			<path id="Shape_187" class="st0" d="M-653.3-310.8c0.6,0,1.2-0.5,1.2-1.2v-3.6c0-0.6-0.5-1.2-1.2-1.2h-3c-1.7,0-3,1.3-3,3
				s1.3,3,3,3L-653.3-310.8L-653.3-310.8z"/>
			<path id="Shape_188" class="st0" d="M-656.3-314.1c0.2,0,0.3,0.1,0.3,0.3c0,0.2-0.1,0.3-0.3,0.3s-0.3-0.2-0.3-0.3
				S-656.5-314.1-656.3-314.1L-656.3-314.1"/>
		</g>
	</g>
</g>
</svg>
