<svg xmlns="http://www.w3.org/2000/svg" width="948" height="381" viewBox="0 0 948 381">
  <g id="_419_" transform="translate(-430 -224)">
    <g id="_1_копия_3">
      <path id="Фигура_722" d="M813,605V547h11v47H994v11Zm63-67V338H813V280h10v47h63V538Z" fill="#eef3f5"/>
      <path id="_1_копия_2" d="M836,539H825v54h177V539H940V272H824v54h63V539H873" fill="none" stroke="#dbdee5" stroke-width="2"/>
      <g id="Эллипс_718" transform="translate(835 533)">
        <circle id="Эллипс_35" data-name="Эллипс 35" cx="5" cy="5" r="5" fill="none"/>
        <circle id="Эллипс_36" data-name="Эллипс 36" cx="4" cy="4" r="4" transform="translate(1 1)" fill="none" stroke="#dbdee5" stroke-width="2"/>
      </g>
      <g id="Эллипс_718_копия" transform="translate(863 533)">
        <circle id="Эллипс_37" data-name="Эллипс 37" cx="5" cy="5" r="5" fill="none"/>
        <circle id="Эллипс_38" data-name="Эллипс 38" cx="4" cy="4" r="4" transform="translate(2 1)" fill="none" stroke="#dbdee5" stroke-width="2"/>
      </g>
      <path id="Фигура_784" d="M851,298h63V567" fill="none" stroke="#de5846" stroke-width="2"/>
      <line id="Фигура_785" x2="140" transform="translate(847 567)" fill="none" stroke="#de5846" stroke-width="2"/>
    </g>
    <g id="_9">
      <path id="Фигура_797" d="M1122,573c-14-19.6-13-46-13-46V517l12-3v10c0,6.1,1.5,29.122,17.1,45.322S1170,594,1187,594h49c24.1,0,35-11,35-11s-11.7,22-45,22h-45.6C1174.1,605,1144.5,604.4,1122,573Zm118-92a121.657,121.657,0,0,1-16,1h-35c-7.6,0-45.022-4.205-63.822-31.805A89,89,0,0,1,1110,401V355c0-33.3,26.77-53.752,26.77-53.752s-15.77,17.87-15.77,41.67V397c0,46.2,36.7,75,72,75h28c6.9,0,29-2,29-2v57c0,8.7-10,13.871-10,13.871Zm0-128a15.653,15.653,0,0,0-16-15h-49.148s5.215-11,14.715-11H1235c6.9,0,15,5.1,15,15l.627,59.73c0,10.8-10.627,16.055-10.627,16.055Z" transform="translate(2 -2)" fill="#eef3f5"/>
      <g id="_9_копия">
        <path id="Контур_7" data-name="Контур 7" d="M1304.9,361.6V343.4c0-9.6-1.5-19.2-5.3-27.8a72.728,72.728,0,0,0-37.9-37.9,68.174,68.174,0,0,0-27.8-5.7h-40.3a68.174,68.174,0,0,0-27.8,5.7,72.728,72.728,0,0,0-37.9,37.9,67.614,67.614,0,0,0-5.7,27.4v56.5a68.177,68.177,0,0,0,5.7,27.8,72.728,72.728,0,0,0,37.9,37.9,69.772,69.772,0,0,0,28.1,5.9c11.7,0,22.1.2,29,0a194.553,194.553,0,0,0,28.5-2.4v53.8a17.2,17.2,0,0,1-16.9,17.5h-40.9a17.2,17.2,0,0,1-17.5-16.9V491.9l-53.8,13.6v17.1a68.177,68.177,0,0,0,5.7,27.8,72.728,72.728,0,0,0,37.9,37.9c8.6,3.8,17.9,4.9,27.9,4.9h40.4c9.9,0,19-1.1,27.6-4.9a72.727,72.727,0,0,0,37.9-37.9c3.8-8.6,5.3-17,5.3-27V411.9m-53.5-12.5a17.2,17.2,0,0,1-16.9,17.5h-40.9a17.2,17.2,0,0,1-17.5-16.9V342.9a16.388,16.388,0,0,1,5-12,17.122,17.122,0,0,1,12.5-5H1234a17.122,17.122,0,0,1,12.5,5,16.01,16.01,0,0,1,5,12Z" fill="none"/>
        <path id="Контур_8" data-name="Контур 8" d="M1193.7,274a71.467,71.467,0,0,0-14,1.4,65.47,65.47,0,0,0-13,4.1,70.971,70.971,0,0,0-11.8,6.5,74.671,74.671,0,0,0-10.2,8.4,68.2,68.2,0,0,0-20.4,48.6v56.5a71.483,71.483,0,0,0,1.4,14,65.48,65.48,0,0,0,4.1,13,70.963,70.963,0,0,0,6.5,11.8,74.666,74.666,0,0,0,8.4,10.2,69.068,69.068,0,0,0,10.2,8.4,67.183,67.183,0,0,0,11.8,6.5,65.764,65.764,0,0,0,13.2,4.3,66.874,66.874,0,0,0,14.1,1.5h21.1c3.3,0,5.9,0,7.9-.1a199.1,199.1,0,0,0,28.1-2.4l2.4-.5v56.3A19.132,19.132,0,0,1,1234,542h-40.3a19.132,19.132,0,0,1-19.5-19.5V494.4L1124.4,507v15.5a71.463,71.463,0,0,0,1.4,14,65.47,65.47,0,0,0,4.1,13,70.961,70.961,0,0,0,6.5,11.8,74.662,74.662,0,0,0,8.4,10.2,69.069,69.069,0,0,0,10.2,8.4,67.177,67.177,0,0,0,11.8,6.5,50.983,50.983,0,0,0,12.9,3.7,85.693,85.693,0,0,0,14.1,1h40.4c11.1,0,19.4-1.5,26.8-4.7a70.969,70.969,0,0,0,11.8-6.5,74.665,74.665,0,0,0,10.2-8.4,69.066,69.066,0,0,0,8.4-10.2,67.188,67.188,0,0,0,6.5-11.8c3.5-8,5.1-16.1,5.1-26.2V343.4c0-10.2-1.7-19.3-5.1-27a70.961,70.961,0,0,0-6.5-11.8,74.672,74.672,0,0,0-8.4-10.2,69.07,69.07,0,0,0-10.2-8.4,67.182,67.182,0,0,0-11.8-6.5,65.477,65.477,0,0,0-13-4.1,71.472,71.472,0,0,0-14-1.4h-40.3M1234,418.9h-40.3a19.132,19.132,0,0,1-19.5-19.5V342.9a18.749,18.749,0,0,1,5.6-13.5,19,19,0,0,1,13.9-5.6H1234a19,19,0,0,1,13.9,5.6,18.584,18.584,0,0,1,5.6,13.5v56.5a19.132,19.132,0,0,1-19.5,19.5M1193.7,272H1234a68.121,68.121,0,0,1,27.8,5.7,72.708,72.708,0,0,1,37.8,37.8c3.8,8.6,5.3,18.2,5.3,27.8V523.2c0,9.9-1.5,18.4-5.3,27a72.707,72.707,0,0,1-37.8,37.8c-8.6,3.8-17.7,4.9-27.6,4.9h-40.4c-9.9,0-19.3-1.1-27.9-4.9a72.708,72.708,0,0,1-37.8-37.8,68.121,68.121,0,0,1-5.7-27.8V505.3l53.8-13.6v30.6a17.2,17.2,0,0,0,5,12.5,16.808,16.808,0,0,0,12.5,5H1234a17.2,17.2,0,0,0,12.5-5,16.808,16.808,0,0,0,5-12.5V468.5a208.58,208.58,0,0,1-28.5,2.4c-2.3.1-5,.1-8,.1-6,0-13.2-.1-21-.1a69.678,69.678,0,0,1-28.1-5.9,72.708,72.708,0,0,1-37.8-37.8,68.12,68.12,0,0,1-5.7-27.8V342.9a67.615,67.615,0,0,1,5.7-27.4,72.708,72.708,0,0,1,37.8-37.8,68.118,68.118,0,0,1,27.8-5.7ZM1234,416.9a17.2,17.2,0,0,0,12.5-5,16.808,16.808,0,0,0,5-12.5V342.9a16.388,16.388,0,0,0-5-12,16.809,16.809,0,0,0-12.5-5h-40.3a17.2,17.2,0,0,0-12.5,5,16.321,16.321,0,0,0-5,12v56.5a17.2,17.2,0,0,0,5,12.5,16.808,16.808,0,0,0,12.5,5Z" fill="#dbdee5"/>
      </g>
      <g id="Эллипс_798" transform="translate(1301 361)">
        <circle id="Эллипс_39" data-name="Эллипс 39" cx="5" cy="5" r="5" fill="none"/>
      </g>
      <g id="Эллипс_798_копия" transform="translate(1301 404)">
        <circle id="Эллипс_41" data-name="Эллипс 41" cx="5" cy="5" r="5" fill="none"/>
      </g>
    </g>
    <g id="шьфп_копия_7">
      <path id="Прямоугольник_1_копия_15" d="M1022,605V590h-5v-2h5V550h-6v-2h6v-4h2v4h21v2h-21v38h38v-9h2v9h38v-7h2v7h18v2h-18v13h-2V590h-38v8h-2v-8h-38v15Zm0-67v-4h-4v-2h4v-4h2v4h4v2h-4v4Z" fill="#dbdee5"/>
      <path id="Прямоугольник_1_копия_29" d="M755,388V373h-5v-2h5V333h-6v-2h6v-4h2v4h21v2H757v38h38v-9h2v9h38v-7h2v7h18v2H837v13h-2V373H797v8h-2v-8H757v15Zm0-67v-4h-4v-2h4v-4h2v4h4v2h-4v4Z" fill="#dbdee5"/>
      <path id="Прямоугольник_1_копия_17" d="M1366,520v-5h-10v-2h10V475h-38v6h-2v-6h-4v-2h4V452h2v21h38V435h-9v-2h9V395h-7v-2h7V355h-38v11h-2V355h-4v-2h4V342h2v11h38V332h2v21h5v2h-5v38h3v2h-3v38h3v2h-3v38h10v2h-10v38h10v2h-10v5Zm-26-1v-4h-4v-2h4v-4h2v4h4v2h-4v4Zm-14-187v-4h-4v-2h4v-4h2v4h4v2h-4v4Z" fill="#dbdee5"/>
      <path id="Прямоугольник_1_копия_28" d="M981,523V502h-5v-2h5V462h-3v-2h3V422h-3v-2h3V382H971v-2h10V342H971v-2h10v-5h2v5h10v2H983v38h38v-6h2v6h4v2h-4v21h-2V382H983v38h9v2h-9v38h7v2h-7v38h38V489h2v11h4v2h-4v11h-2V502H983v21Zm26-177v-4h-4v-2h4v-4h2v4h4v2h-4v4Z" fill="#dbdee5"/>
      <path id="Прямоугольник_1_копия_16" d="M525,601V590H514v-2h11V550H487v36h-2V550H447v38h10v2H447v5h-2v-5H430v-2h15V550H430v-2h15V510h-8v-2h8V470H432v-2h13V430h-5v-2h5V407h2v21h4v2h-4v38h7v2h-7v38h9v2h-9v38h38V527h2v21h38V537h2v11h14v2H527v38h4v2h-4v11Zm-54-7v-4h-4v-2h4v-4h2v4h4v2h-4v4Zm-2-120v-4h-4v-2h4v-4h2v4h4v2h-4v4Z" fill="#dbdee5"/>
      <path id="Прямоугольник_1_копия_22" d="M694,309V288h-5v-2h5V248H656v9h-2v-9H644v-2h10V224h2v22h38V234h2v12h7v2h-7v38h38V275h2v11h4v2h-4v11h-2V288H696v21Zm24-57v-4h-4v-2h4v-4h2v4h4v2h-4v4Z" fill="#dbdee5"/>
    </g>
    <g id="_4">
      <path id="Прямоугольник_скругл._углы_623" d="M562,521H530a39.989,39.989,0,0,1-40-40V292h13V475c0,16.3,12.7,33,33,33h74v85h52v12H597V521Z" fill="#eef3f5"/>
      <path id="_4-2" d="M664,444.5V272H611V454H557V272H504V475.2a30.981,30.981,0,0,0,9.3,22.4A31.354,31.354,0,0,0,536,507h75v85h53V526.9" fill="none" stroke="#dbdee5" stroke-width="2"/>
      <path id="Прямоугольник_скругл._углы_623-2" d="M664,535v-8a20.059,20.059,0,0,1,20-20h6" fill="none" stroke="#dbdee5" stroke-width="2"/>
      <line id="Фигура_619_копия" x2="12" transform="translate(682 507)" fill="none" stroke="#dbdee5" stroke-width="2"/>
      <g id="Эллипс_621" transform="translate(692 503)">
        <circle id="Эллипс_1" data-name="Эллипс 1" cx="5" cy="5" r="5" fill="none"/>
        <circle id="Эллипс_2" data-name="Эллипс 2" cx="4" cy="4" r="4" transform="translate(1)" fill="none" stroke="#dbdee5" stroke-width="2"/>
      </g>
      <g id="Эллипс_621_копия" transform="translate(660 444)">
        <circle id="Эллипс_3" data-name="Эллипс 3" cx="4.9" cy="4.9" r="4.9" transform="translate(0 0)" fill="none"/>
        <circle id="Эллипс_4" data-name="Эллипс 4" cx="3.9" cy="3.9" r="3.9" transform="translate(0 1)" fill="none" stroke="#dbdee5" stroke-width="2"/>
      </g>
    </g>
  </g>
</svg>
