<svg xmlns="http://www.w3.org/2000/svg" width="948" height="381" viewBox="0 0 948 381">
  <g id="_500" transform="translate(-430 -224)">
    <g id="шьфп_копия_7">
      <path id="Прямоугольник_1_копия_15" d="M1041,605V590h-38v15h-2V590h-5v-2h5V578h2v10h38V550h-36v-2h36v-4h2v4h21v2h-21v38h38v-9h2v9h38v-4h2v4h8v2h-8v13h-2V590h-38v8h-2v-8h-38v15Zm-40-37v-4h-4v-2h4v-4h2v4h4v2h-4v4Z" fill="#dbdee5"/>
      <path id="Прямоугольник_1_копия_17" d="M1366,590v-5h-10v-2h10V545h-14v-2h14V532h2v11h10v2h-10v38h10v2h-10v5Zm-26-1v-4h-4v-2h4v-4h2v4h4v2h-4v4Z" fill="#dbdee5"/>
      <path id="Прямоугольник_1_копия_30" d="M1366,337V325h-7v-2h7V285h-38v11h-2V285h-4v-2h4V272h2v11h38V262h2v21h5v2h-5v38h3v2h-3v12Zm-40-75v-4h-4v-2h4v-4h2v4h4v2h-4v4Z" fill="#dbdee5"/>
      <path id="Прямоугольник_1_копия_16" d="M445,595v-5H430v-2h15V550H430v-2h15V510h-8v-2h8V470H432v-2h13V430h-5v-2h5V407h2v21h4v2h-4v38h7v2h-7v38h9v2h-9v38h8v2h-8v38h10v2H447v5Zm26-1v-4h-4v-2h4v-4h2v4h4v2h-4v4Zm-2-120v-4h-4v-2h4v-4h2v4h4v2h-4v4Z" fill="#dbdee5"/>
      <path id="Прямоугольник_1_копия_22" d="M694,309V288h-5v-2h5V248H656v9h-2v-9H644v-2h10V224h2v22h38V234h2v12h7v2h-7v38h38V275h2v11h4v2h-4v11h-2V288H696v21Zm24-57v-4h-4v-2h4v-4h2v4h4v2h-4v4Z" fill="#dbdee5"/>
    </g>
    <g id="_5" transform="translate(-20 -1)">
      <path id="Фигура_860" d="M551,605c-28.2,0-65-36.7-65-70V506h13l.607,20.828C499.607,554.405,522.3,593,568,593h44c21.1,0,39-12,39-12s-22.4,24-49,24Zm64-141c0-12.7-5.3-15-12-15H548c-36.2,0-57-25.9-57-56V379h13v14c0,10.631,10.2,44,43,44h60c12,0,21,5.3,21,15.9l-.082,70.248C627.918,530.548,615,539,615,539ZM558,338V326H658v12Zm-67-22V285h12v31Z" fill="#eef3f5"/>
      <path id="_5_копия" d="M504,368v24a45.163,45.163,0,0,0,3.9,18.5c7.5,17.8,23,26.3,42.3,26.2h60.5a17.281,17.281,0,0,1,12.4,4.8,16.079,16.079,0,0,1,5,12.2v67.6a17.075,17.075,0,0,1-16.7,17.4H570.5A17.1,17.1,0,0,1,553,522V493.4H499.3v30.9A67.709,67.709,0,0,0,505,552c7.3,16.9,17.8,27.4,34.8,34.7a69.38,69.38,0,0,0,27.7,5.7h43.2a66.12,66.12,0,0,0,27.7-5.7,72.689,72.689,0,0,0,37.8-37.6,68.905,68.905,0,0,0,5.7-27.6V454a67.247,67.247,0,0,0-5.7-27.6,72.69,72.69,0,0,0-37.8-37.6,69.38,69.38,0,0,0-27.7-5.7H557.9V325.6H671V272H504v52" fill="none" stroke="#dbdee5" stroke-width="2"/>
      <g id="Эллипс_862" transform="translate(498 324)">
        <circle id="Эллипс_63" cx="5" cy="5" r="5" fill="none"/>
        <circle id="Эллипс_64" cx="4" cy="4" r="4" transform="translate(2)" fill="none" stroke="#dbdee5" stroke-width="2"/>
      </g>
      <g id="Эллипс_862_копия" transform="translate(498 360)">
        <circle id="Эллипс_65" cx="5" cy="5" r="5" fill="none"/>
        <circle id="Эллипс_66" cx="4" cy="4" r="4" transform="translate(2 1)" fill="none" stroke="#dbdee5" stroke-width="2"/>
      </g>
    </g>
    <g id="Группа_89_копия_2" transform="translate(-50.73 -1)">
      <path id="Эллипс_634" d="M755,434c0,103.8,91.1,159,161,159,30.3,0,83.7-13.3,114.4-47.2-57.2,68.8-159.3,78.2-228.2,21-68.8-57.2-78.2-159.3-21-228.2.2-.2.3-.4.5-.6a164.931,164.931,0,0,1,19.5-19.7C794,326.2,755,364.4,755,434Z" fill="#eef3f5"/>
      <g id="Эллипс_634_копия_3" transform="translate(754 270)">
        <circle id="Эллипс_67" cx="162" cy="162" r="162" fill="none"/>
        <circle id="Эллипс_68" cx="161" cy="161" r="161" transform="translate(1 1)" fill="none" stroke="#dbdee5" stroke-width="2"/>
      </g>
      <g id="Группа_88">
        <path id="Фигура_639" d="M1016.8,332.2l-51.2,51.2m-98.3,98.2-50.7,50.7" fill="none" stroke="#de5846" stroke-width="2"/>
        <path id="Фигура_639_копия" d="M1015.3,532.3,965,481.9m-98.2-98.2-51.5-51.5" fill="none" stroke="#de5846" stroke-width="2"/>
        <g id="Фигура_643">
          <path id="Контур_13" d="M953.6,492.6l-36.9-36.9-.7-.7-.7.7-36.9,36.9-22.9-22.9,36.9-36.9.7-.7-.7-.7-36.9-36.9,22.9-22.9,36.9,36.9.7.7.7-.7,36.9-36.9,22.9,22.9-36.9,36.9-.7.7.7.7,36.9,36.9Z" fill="#ffe0da"/>
          <path id="Контур_14" d="M878.3,373l-21.5,21.5L893,430.7l1.4,1.4-1.4,1.4-36.2,36.2,21.5,21.5L914.5,455l1.4-1.4,1.4,1.4,36.2,36.2L975,469.7l-36.2-36.2-1.4-1.4,1.4-1.4L975,394.5,953.6,373l-36.2,36.2-1.4,1.4-1.4-1.4L878.3,373m0-2.8,37.6,37.6,37.6-37.6,24.3,24.3-37.6,37.6,37.6,37.6L953.6,494,916,456.4,878.3,494,854,469.7l37.6-37.6L854,394.4Z" fill="#de5846"/>
        </g>
      </g>
      <g id="Сгруппировать_893" data-name="Сгруппировать 893">
        <path id="Эллипс_634_копия_2" d="M1027.3,343.8a142.11,142.11,0,0,1,.4,176m-23,23.1a141.933,141.933,0,0,1-177.2.1m-22.9-22.9a141.935,141.935,0,0,1,.9-177.2m22.6-22.4a142,142,0,0,1,176.4.5" fill="none" stroke="#212225" stroke-linecap="round" stroke-width="2"/>
        <path id="Эллипс_634_копия" d="M984.6,387.1a82.038,82.038,0,0,1-.4,90.4m-22.9,22.8a82.015,82.015,0,0,1-90.5.1m-23.2-23.1a81.993,81.993,0,0,1,.1-90.6m23.2-23.2a82.181,82.181,0,0,1,90.6.2" fill="none" stroke="#212225" stroke-linecap="round" stroke-width="2"/>
        <path id="Контур_690" data-name="Контур 690" d="M984.629,387.039l42.563-43.163" fill="none" stroke="#212225" stroke-linecap="round" stroke-width="2"/>
        <path id="Контур_694" data-name="Контур 694" d="M984.291,343.81l43.234,42.081" transform="translate(0 133.77)" fill="none" stroke="#212225" stroke-linecap="round" stroke-width="2"/>
        <path id="Контур_693" data-name="Контур 693" d="M1026.736,386.612,984.693,343.04" transform="translate(-179.031)" fill="none" stroke="#212225" stroke-linecap="round" stroke-width="2"/>
        <path id="Контур_697" data-name="Контур 697" d="M1026.592,342.36l-42.762,42.59" transform="translate(-179.031 135.032)" fill="none" stroke="#212225" stroke-linecap="round" stroke-width="2"/>
        <path id="Контур_691" data-name="Контур 691" d="M983.6,386.636l42.816-42.555" transform="translate(-22 -23)" fill="none" stroke="#212225" stroke-linecap="round" stroke-width="2"/>
        <path id="Контур_695" data-name="Контур 695" d="M983.439,343.341l43.225,42.459" transform="translate(-22 156.968)" fill="none" stroke="#212225" stroke-linecap="round" stroke-width="2"/>
        <path id="Контур_692" data-name="Контур 692" d="M1026.049,386.468l-42.6-42.822" transform="translate(-155.223 -23)" fill="none" stroke="#212225" stroke-linecap="round" stroke-width="2"/>
        <path id="Контур_696" data-name="Контур 696" d="M1025.881,342.908,982.84,385.291" transform="translate(-155.223 157.571)" fill="none" stroke="#212225" stroke-linecap="round" stroke-width="2"/>
      </g>
    </g>
    <g id="Группа_89_копия_2-2" data-name="Группа_89_копия_2" transform="translate(299.27 -1)">
      <path id="Эллипс_634-2" data-name="Эллипс_634" d="M755,434c0,103.8,91.1,159,161,159,30.3,0,83.7-13.3,114.4-47.2-57.2,68.8-159.3,78.2-228.2,21-68.8-57.2-78.2-159.3-21-228.2.2-.2.3-.4.5-.6a164.931,164.931,0,0,1,19.5-19.7C794,326.2,755,364.4,755,434Z" fill="#eef3f5"/>
      <g id="Эллипс_634_копия_3-2" data-name="Эллипс_634_копия_3" transform="translate(754 270)">
        <circle id="Эллипс_67-2" data-name="Эллипс_67" cx="162" cy="162" r="162" fill="none"/>
        <circle id="Эллипс_68-2" data-name="Эллипс_68" cx="161" cy="161" r="161" transform="translate(1 1)" fill="none" stroke="#dbdee5" stroke-width="2"/>
      </g>
      <g id="Сгруппировать_893-2" data-name="Сгруппировать 893">
        <path id="Эллипс_634_копия_2-2" data-name="Эллипс_634_копия_2" d="M1027.3,343.8a142.11,142.11,0,0,1,.4,176m-23,23.1a141.933,141.933,0,0,1-177.2.1m-22.9-22.9a141.935,141.935,0,0,1,.9-177.2m22.6-22.4a142,142,0,0,1,176.4.5" fill="none" stroke="#212225" stroke-linecap="round" stroke-width="2"/>
        <path id="Эллипс_634_копия-2" data-name="Эллипс_634_копия" d="M984.6,387.1a82.038,82.038,0,0,1-.4,90.4m-22.9,22.8a82.015,82.015,0,0,1-90.5.1m-23.2-23.1a81.993,81.993,0,0,1,.1-90.6m23.2-23.2a82.181,82.181,0,0,1,90.6.2" fill="none" stroke="#212225" stroke-linecap="round" stroke-width="2"/>
        <path id="Контур_690-2" data-name="Контур 690" d="M984.629,387.039l42.563-43.163" fill="none" stroke="#212225" stroke-linecap="round" stroke-width="2"/>
        <path id="Контур_694-2" data-name="Контур 694" d="M984.291,343.81l43.234,42.081" transform="translate(0 133.77)" fill="none" stroke="#212225" stroke-linecap="round" stroke-width="2"/>
        <path id="Контур_693-2" data-name="Контур 693" d="M1026.736,386.612,984.693,343.04" transform="translate(-179.031)" fill="none" stroke="#212225" stroke-linecap="round" stroke-width="2"/>
        <path id="Контур_697-2" data-name="Контур 697" d="M1026.592,342.36l-42.762,42.59" transform="translate(-179.031 135.032)" fill="none" stroke="#212225" stroke-linecap="round" stroke-width="2"/>
        <path id="Контур_691-2" data-name="Контур 691" d="M983.6,386.636l42.816-42.555" transform="translate(-22 -23)" fill="none" stroke="#212225" stroke-linecap="round" stroke-width="2"/>
        <path id="Контур_695-2" data-name="Контур 695" d="M983.439,343.341l43.225,42.459" transform="translate(-22 156.968)" fill="none" stroke="#212225" stroke-linecap="round" stroke-width="2"/>
        <path id="Контур_692-2" data-name="Контур 692" d="M1026.049,386.468l-42.6-42.822" transform="translate(-155.223 -23)" fill="none" stroke="#212225" stroke-linecap="round" stroke-width="2"/>
        <path id="Контур_696-2" data-name="Контур 696" d="M1025.881,342.908,982.84,385.291" transform="translate(-155.223 157.571)" fill="none" stroke="#212225" stroke-linecap="round" stroke-width="2"/>
      </g>
    </g>
  </g>
</svg>
