<?xml version="1.0" standalone="no"?>
<!DOCTYPE svg PUBLIC "-//W3C//DTD SVG 20010904//EN"
 "http://www.w3.org/TR/2001/REC-SVG-20010904/DTD/svg10.dtd">
<svg version="1.0" xmlns="http://www.w3.org/2000/svg"
 width="700.000000pt" height="700.000000pt" viewBox="0 0 700.000000 700.000000"
 preserveAspectRatio="xMidYMid meet">
<metadata>
Created by potrace 1.11, written by Peter Selinger 2001-2013
</metadata>
<g transform="translate(0.000000,700.000000) scale(0.100000,-0.100000)"
fill="#000000" stroke="none">
<path d="M403 6986 c-196 -48 -357 -217 -392 -410 -15 -84 -15 -6068 0 -6152
13 -74 56 -166 109 -232 50 -63 165 -141 245 -167 59 -20 109 -20 3135 -20
l3075 0 67 23 c83 29 191 104 241 168 51 65 93 155 106 228 15 84 15 6068 0
6152 -27 148 -139 299 -270 362 -137 67 127 62 -3224 61 -2417 -1 -3051 -3
-3092 -13z m4447 -3448 c734 -1194 1339 -2178 1343 -2187 13 -25 -61 53 -1412
1482 l-1274 1348 -27 -28 c-15 -15 -618 -649 -1340 -1408 -1432 -1505 -1356
-1426 -1345 -1405 10 17 2669 4312 2693 4348 8 12 17 22 21 22 3 0 607 -978
1341 -2172z m-1101 -280 l233 -243 -235 -3 c-130 -1 -345 -1 -479 0 l-243 3
235 241 c129 133 240 242 246 243 5 0 115 -108 243 -241z m760 -790 l211 -223
-611 -3 c-336 -1 -883 -1 -1216 0 l-606 3 212 223 212 222 794 0 793 0 211
-222z"/>
</g>
</svg>
