<?xml version="1.0" encoding="utf-8"?>
<!-- Generator: Adobe Illustrator 22.0.1, SVG Export Plug-In . SVG Version: 6.00 Build 0)  -->
<svg version="1.1" id="Layer_1" xmlns="http://www.w3.org/2000/svg" xmlns:xlink="http://www.w3.org/1999/xlink" x="0px" y="0px"
	 viewBox="0 0 21.5 23.6" style="enable-background:new 0 0 21.5 23.6;" xml:space="preserve">
<style type="text/css">
	.st0{fill:none;stroke:#212225;stroke-width:1.5;stroke-linecap:round;}
</style>
<g id="Blockchain_Registration" transform="translate(0.75 0.782)">
	<path id="Фигура_612_копия" class="st0" d="M3.7,3.5c0,0,5.3-3,5.7-3.3c0.5-0.2,1-0.2,1.4,0C11.2,0.4,19,4.7,19.5,5
		c0.3,0.2,0.5,0.6,0.5,1v9.5c-0.1,0.5-0.3,0.9-0.7,1.2c0,0-8.4,4.9-8.5,5C10.4,22,10,22,9.6,21.9c-0.3-0.2-7.7-4.5-9.1-5.3
		c-0.3-0.3-0.5-0.7-0.5-1.2V6.4c0-0.3,0.3-0.6,0.6-0.6c0.1,0,0.2,0,0.2,0.1c1.8,1,7.4,4.2,8.8,5c0.2,0.1,0.2,0.3,0.2,0.7V17"/>
</g>
</svg>
