<?xml version="1.0" encoding="utf-8"?>
<!-- Generator: Adobe Illustrator 22.0.1, SVG Export Plug-In . SVG Version: 6.00 Build 0)  -->
<svg version="1.1" id="Layer_1" xmlns="http://www.w3.org/2000/svg" xmlns:xlink="http://www.w3.org/1999/xlink" x="0px" y="0px"
	 viewBox="0 0 22.5 24.2" style="enable-background:new 0 0 22.5 24.2;" xml:space="preserve">
<style type="text/css">
	.st0{fill:none;stroke:#212225;stroke-width:1.5;stroke-linecap:round;stroke-linejoin:round;}
	.st1{fill:none;stroke:#000000;stroke-width:1.5;stroke-linecap:round;stroke-linejoin:round;}
</style>
<g id="Delegate_Name" transform="translate(-422.287 -2617)">
	<g id="Group_354" transform="translate(423.037 2617.75)">
		<g id="Regular_354" transform="translate(0 0)">
			<path id="Shape_1416" class="st0" d="M20.4,14.3l-7.6,7.6L9,22.7l0.8-3.8l7.6-7.6c0.8-0.8,2.2-0.8,3,0c0,0,0,0,0,0l0,0
				C21.2,12.1,21.2,13.5,20.4,14.3C20.4,14.3,20.4,14.3,20.4,14.3L20.4,14.3z"/>
			<path id="Oval_511" class="st1" d="M7.1,8.7c2.4,0,4.3-1.9,4.3-4.3C11.4,1.9,9.5,0,7.1,0C4.7,0,2.8,1.9,2.8,4.3S4.7,8.7,7.1,8.7
				C7.1,8.7,7.1,8.7,7.1,8.7z"/>
			<path id="Shape_1393" class="st1" d="M10.2,12.3c-1-0.5-2.1-0.7-3.2-0.7c-3.9,0-7.1,3.2-7.1,7.1"/>
		</g>
	</g>
</g>
</svg>
