<svg xmlns="http://www.w3.org/2000/svg" viewBox="0 0 20 20" style="enable-background:new 0 0 20 20;" xml:space="preserve">
<g fill="none" stroke="currentColor" stroke-width="2" stroke-linecap="round" stroke-linejoin="round">
    <path d="M6.45 13.25c-.8-1.8-2.9-2.6-4.7-1.9-.2.1-.5.2-.7.4M13.55 13.25c.8-1.8 2.9-2.6 4.7-1.9.2.1.5.2.7.4"/>
    <path d="M14.75 15.75c-.3-2.6-2.8-4.5-5.4-4.1-2.2.3-3.8 2-4.1 4.1"/>
    <g>
      <path d="M3.15 9.65c1.1 0 2.1-1 2.1-2.1s-1-2.1-2.1-2.1-2.1 1-2.1 2.1.9 2.1 2.1 2.1h0zM16.85 9.65c1.1 0 2.1-1 2.1-2.1s-1-2.1-2.1-2.1-2.1 1-2.1 2.1 1 2.1 2.1 2.1h0zM10.05 9.65c1.5 0 2.7-1.2 2.7-2.7s-1.2-2.7-2.7-2.7-2.7 1.2-2.7 2.7h0c-.1 1.5 1.1 2.7 2.7 2.7z"/>
    </g>
  </g>
</svg>
