<?xml version="1.0" encoding="utf-8"?>
<!-- Generator: Adobe Illustrator 22.0.1, SVG Export Plug-In . SVG Version: 6.00 Build 0)  -->
<svg version="1.1" id="Layer_1" xmlns="http://www.w3.org/2000/svg" xmlns:xlink="http://www.w3.org/1999/xlink" x="0px" y="0px"
	 viewBox="0 0 24.6 16.1" style="enable-background:new 0 0 24.6 16.1;" xml:space="preserve">
<style type="text/css">
	.st0{fill:none;stroke:#000000;stroke-width:1.5;stroke-linecap:round;stroke-linejoin:round;}
</style>
<g id="Multisig_Registration" transform="translate(-417.703 -3498)">
	<path id="Oval_734" class="st0" d="M421.4,3505.5c1.4,0,2.6-1.2,2.6-2.6s-1.2-2.6-2.6-2.6s-2.6,1.2-2.6,2.6
		S419.9,3505.5,421.4,3505.5L421.4,3505.5z"/>
	<path id="Shape_2059" class="st0" d="M425.5,3510c-1-2.3-3.6-3.3-5.9-2.4c-0.3,0.1-0.6,0.3-0.9,0.5"/>
	<path id="Oval_735" class="st0" d="M438.6,3505.5c1.4,0,2.6-1.2,2.6-2.6s-1.2-2.6-2.6-2.6s-2.6,1.2-2.6,2.6
		S437.2,3505.5,438.6,3505.5L438.6,3505.5z"/>
	<path id="Shape_2060" class="st0" d="M434.5,3510c1-2.3,3.6-3.3,5.9-2.4c0.3,0.1,0.6,0.3,0.9,0.5"/>
	<path id="Oval_736" class="st0" d="M430,3505.5c1.9,0,3.4-1.5,3.4-3.4s-1.5-3.4-3.4-3.4s-3.4,1.5-3.4,3.4l0,0
		C426.6,3504,428.1,3505.5,430,3505.5z"/>
	<path id="Shape_2061" class="st0" d="M436,3513.2c-0.4-3.3-3.5-5.6-6.8-5.2c-2.7,0.4-4.8,2.5-5.2,5.2"/>
</g>
</svg>
