<?xml version="1.0" encoding="utf-8"?>
<!-- Generator: Adobe Illustrator 24.3.0, SVG Export Plug-In . SVG Version: 6.00 Build 0)  -->
<svg version="1.1" id="Слой_1" xmlns="http://www.w3.org/2000/svg" xmlns:xlink="http://www.w3.org/1999/xlink" x="0px" y="0px"
	 viewBox="0 0 23.7 24.2" style="enable-background:new 0 0 23.7 24.2;" xml:space="preserve">
<style type="text/css">
	.st0{fill:none;stroke:#000000;stroke-width:1.5;stroke-linecap:round;stroke-linejoin:round;}
</style>
<g id="Interface-Essential_Time_time-clock-circle" transform="translate(-447.755 -2355.75)">
	<g id="Group_216">
		<g id="time-clock-circle">
			<path id="Oval_136" class="st0" d="M469.5,2367c0-5.8-4.7-10.5-10.5-10.5s-10.5,4.7-10.5,10.5c0,5.8,4.7,10.5,10.5,10.5"/>
			<path id="Shape_943" class="st0" d="M459,2367v-3.8"/>
			<path id="Shape_944" class="st0" d="M459,2367l2.3,2.3"/>
		</g>
		<path id="Rectangle-path_88" class="st0" d="M463.7,2374.5c0-0.6,0.5-1.2,1.2-1.2h4.7c0.6,0,1.2,0.5,1.2,1.2v3.5
			c0,0.6-0.5,1.2-1.2,1.2h-4.7c-0.6,0-1.2-0.5-1.2-1.2V2374.5z"/>
		<path id="Shape_1325" class="st0" d="M467.2,2369.9L467.2,2369.9c-1.3,0-2.3,1-2.3,2.3v1.2h4.7v-1.2
			C469.6,2370.9,468.5,2369.9,467.2,2369.9C467.2,2369.9,467.2,2369.9,467.2,2369.9z"/>
		<path id="Shape_1326" class="st0" d="M467.2,2376c-0.2,0-0.3,0.1-0.3,0.3c0,0.2,0.1,0.3,0.3,0.3c0.2,0,0.3-0.1,0.3-0.3l0,0
			C467.5,2376.2,467.4,2376,467.2,2376L467.2,2376"/>
	</g>
</g>
</svg>
