<?xml version="1.0" encoding="utf-8"?>
<!-- Generator: Adobe Illustrator 22.0.1, SVG Export Plug-In . SVG Version: 6.00 Build 0)  -->
<svg version="1.1" id="Layer_1" xmlns="http://www.w3.org/2000/svg" xmlns:xlink="http://www.w3.org/1999/xlink" x="0px" y="0px"
	 viewBox="0 0 21 23.1" style="enable-background:new 0 0 21 23.1;" xml:space="preserve">
<style type="text/css">
	.st0{fill:none;stroke:#212225;stroke-width:1.5;stroke-linecap:round;stroke-linejoin:round;}
	.st1{fill:none;stroke:#212225;stroke-width:1.5;stroke-linecap:round;}
</style>
<g id="Unknown_transaction" transform="translate(-1.5)">
	<path id="Path_316" class="st0" d="M6,6.8c0-3.3,2.7-6,6-6s6,2.7,6,6"/>
	<path id="Path_317" class="st0" d="M2.2,6.8h19.5c0,0-1.5,3.8-9.8,3.8S2.2,6.8,2.2,6.8z"/>
	<path id="Path_318" class="st1" d="M5.7,12l-2.2,4.9"/>
	<path id="Path_324" class="st1" d="M18.3,12l2,4.6"/>
	<path id="Path_323" class="st1" d="M10,16.2c0-0.4,0.1-0.7,0.3-1c0.2-0.3,0.4-0.5,0.7-0.6c0.3-0.1,0.7-0.2,1-0.2
		c0.4,0,0.7,0.1,1,0.2c0.3,0.1,0.5,0.3,0.7,0.6c0.2,0.3,0.3,0.6,0.3,0.9c0,0.2,0,0.4-0.1,0.6c-0.1,0.2-0.2,0.4-0.3,0.5
		c-0.1,0.2-0.3,0.3-0.5,0.4c-0.2,0.1-0.3,0.2-0.4,0.3c-0.1,0.1-0.2,0.2-0.2,0.4c-0.1,0.2-0.1,0.4-0.1,0.6V20"/>
	<path id="Path_325" class="st1" d="M12.4,22.3L12.4,22.3"/>
</g>
</svg>
